<svg xmlns="http://www.w3.org/2000/svg" xmlns:xlink="http://www.w3.org/1999/xlink" width="110" zoomAndPan="magnify" viewBox="0 0 82.5 101.249998" height="135" preserveAspectRatio="xMidYMid meet" version="1.0"><path fill="#000000" d="M 53.535156 26.554688 C 53.367188 26.699219 53.183594 26.765625 53.023438 26.75 C 52.691406 26.726562 52.621094 26.496094 52.585938 26.511719 C 52.570312 26.515625 52.566406 26.578125 52.628906 26.667969 C 52.691406 26.753906 52.824219 26.851562 53.015625 26.871094 C 53.246094 26.898438 53.449219 26.808594 53.625 26.660156 C 53.914062 26.414062 54.328125 25.832031 54.421875 25.367188 C 54.550781 24.738281 54.179688 24.230469 53.730469 24.207031 C 53.53125 24.191406 53.375 24.253906 53.289062 24.320312 C 53.203125 24.390625 53.175781 24.445312 53.175781 24.445312 C 53.175781 24.449219 53.214844 24.398438 53.304688 24.347656 C 53.480469 24.242188 53.769531 24.242188 53.980469 24.390625 C 54.203125 24.539062 54.371094 24.910156 54.277344 25.339844 C 54.234375 25.566406 53.800781 26.328125 53.535156 26.554688 Z M 53.535156 26.554688 " fill-opacity="1" fill-rule="nonzero"/><path fill="#000000" d="M 48.175781 22.472656 C 48.089844 22.457031 48.066406 23.007812 48.003906 23.335938 C 47.777344 24.214844 47.734375 24.285156 47.597656 25.007812 C 47.574219 25.136719 47.574219 25.132812 47.625 25.015625 C 47.875 24.371094 47.964844 24.09375 48.144531 23.363281 C 48.164062 23.246094 48.253906 22.484375 48.175781 22.472656 Z M 48.175781 22.472656 " fill-opacity="1" fill-rule="nonzero"/><path fill="#000000" d="M 47.007812 23.222656 C 47.027344 23.324219 47.046875 23.375 47.058594 23.371094 C 47.183594 23.371094 46.921875 22.628906 48.042969 21.507812 C 49.582031 20.015625 51.339844 19.453125 52.851562 19.597656 C 53.308594 19.652344 53.8125 19.71875 54.125 20 C 54.339844 20.199219 54.292969 20.390625 54.445312 20.609375 C 54.636719 20.867188 54.902344 20.929688 55.085938 21.050781 C 55.933594 21.542969 56.5 22.484375 56.675781 23.46875 C 56.839844 24.398438 56.675781 25.28125 56.457031 25.980469 C 56.234375 26.683594 55.9375 27.21875 55.769531 27.605469 C 55.574219 28.039062 55.542969 28.207031 55.535156 28.226562 C 55.621094 28.035156 55.675781 27.910156 55.820312 27.632812 C 56.140625 27.011719 57.203125 25.398438 56.910156 23.425781 C 56.753906 22.367188 56.152344 21.34375 55.230469 20.800781 C 55.007812 20.667969 54.777344 20.589844 54.679688 20.441406 C 54.53125 20.246094 54.632812 19.710938 53.617188 19.429688 C 51.863281 19.019531 50.128906 19.535156 48.734375 20.570312 C 47.914062 21.167969 46.90625 22.21875 47.007812 23.222656 Z M 47.007812 23.222656 " fill-opacity="1" fill-rule="nonzero"/><path fill="#000000" d="M 52.535156 25.03125 C 52.457031 25.132812 52.34375 25.300781 52.140625 25.382812 C 51.882812 25.484375 51.65625 25.375 51.59375 25.0625 C 51.546875 24.863281 51.53125 23.421875 51.421875 22.972656 C 51.304688 22.527344 51.023438 22.328125 50.570312 22.292969 C 50.234375 22.273438 48.902344 22.335938 48.792969 22.351562 C 48.792969 22.351562 48.875 22.359375 49.023438 22.367188 C 50.355469 22.402344 50.351562 22.386719 50.558594 22.410156 C 50.957031 22.457031 51.183594 22.621094 51.285156 23.007812 C 51.386719 23.414062 51.402344 24.835938 51.460938 25.089844 C 51.566406 25.625 52.125 25.6875 52.464844 25.285156 C 52.597656 25.128906 52.707031 24.886719 52.679688 24.875 C 52.660156 24.863281 52.609375 24.925781 52.535156 25.03125 Z M 52.535156 25.03125 " fill-opacity="1" fill-rule="nonzero"/><path fill="#000000" d="M 48.011719 24.722656 C 47.929688 24.804688 47.886719 24.859375 47.90625 24.886719 C 47.976562 24.96875 48.402344 24.523438 48.632812 24.417969 C 48.9375 24.265625 49.40625 24.488281 49.210938 24.371094 C 49.007812 24.253906 48.792969 24.191406 48.574219 24.285156 C 48.402344 24.363281 48.199219 24.546875 48.011719 24.722656 Z M 48.011719 24.722656 " fill-opacity="1" fill-rule="nonzero"/><path fill="#000000" d="M 48.550781 25.378906 C 48.335938 25.449219 48.128906 25.488281 48.128906 25.5 C 48.128906 25.503906 48.179688 25.527344 48.265625 25.539062 C 48.691406 25.601562 49.160156 25.238281 49.078125 25.164062 C 49.019531 25.097656 48.902344 25.269531 48.550781 25.378906 Z M 48.550781 25.378906 " fill-opacity="1" fill-rule="nonzero"/><path fill="#000000" d="M 50.179688 30.921875 C 50.28125 31.3125 50.355469 31.613281 50.421875 31.59375 C 50.492188 31.574219 50.410156 31.277344 50.320312 30.886719 C 50.296875 30.800781 50.277344 30.710938 50.246094 30.625 C 50.175781 30.417969 50.015625 30.257812 49.6875 30.1875 C 49.5625 30.164062 49.632812 30.179688 49.8125 30.304688 C 50.074219 30.476562 50.105469 30.617188 50.179688 30.921875 Z M 50.179688 30.921875 " fill-opacity="1" fill-rule="nonzero"/><path fill="#000000" d="M 45.84375 24.53125 C 45.628906 24.386719 45.371094 24.441406 45.371094 24.460938 C 45.371094 24.464844 45.425781 24.480469 45.5 24.507812 C 45.578125 24.535156 45.671875 24.582031 45.757812 24.648438 C 46.019531 24.828125 46.019531 25.097656 46.097656 25.082031 C 46.191406 25.082031 46.132812 24.734375 45.84375 24.53125 Z M 45.84375 24.53125 " fill-opacity="1" fill-rule="nonzero"/><path fill="#000000" d="M 45.167969 25.316406 C 45.273438 25.527344 45.480469 25.679688 45.707031 25.75 C 45.917969 25.820312 46.492188 25.945312 46.628906 25.769531 C 46.65625 25.738281 46.65625 25.710938 46.640625 25.703125 C 46.609375 25.679688 46.570312 25.726562 46.460938 25.730469 C 46.164062 25.738281 45.585938 25.621094 45.3125 25.40625 C 45.207031 25.324219 45.109375 25.195312 45.167969 25.316406 Z M 45.167969 25.316406 " fill-opacity="1" fill-rule="nonzero"/><path fill="#000000" d="M 46.421875 25.03125 C 46.382812 25.339844 46.402344 25.449219 46.402344 25.46875 C 46.402344 25.46875 46.410156 25.425781 46.425781 25.351562 C 46.566406 24.664062 46.996094 23.722656 46.613281 22.972656 C 46.535156 22.816406 46.433594 22.691406 46.335938 22.609375 C 46.128906 22.4375 45.960938 22.429688 45.953125 22.457031 C 45.925781 22.546875 46.777344 22.710938 46.597656 24.03125 C 46.546875 24.410156 46.457031 24.761719 46.421875 25.03125 Z M 46.421875 25.03125 " fill-opacity="1" fill-rule="nonzero"/><path fill="#000000" d="M 45.449219 22.632812 C 44.882812 23.246094 44.371094 23.761719 43.527344 23.785156 C 42.84375 23.800781 42.074219 23.613281 41.597656 23.117188 C 41.226562 22.738281 41.152344 22.398438 41.109375 22.417969 C 41.089844 22.421875 41.101562 22.503906 41.15625 22.652344 C 41.511719 23.566406 42.546875 23.949219 43.535156 23.929688 C 43.925781 23.921875 44.324219 23.792969 44.648438 23.570312 C 45.546875 22.964844 46.164062 21.640625 46.839844 21.703125 C 47.003906 21.710938 47.082031 21.78125 47.082031 21.777344 C 47.082031 21.777344 47.066406 21.757812 47.027344 21.734375 C 46.878906 21.652344 46.695312 21.652344 46.535156 21.707031 C 46.417969 21.742188 45.777344 22.273438 45.449219 22.632812 Z M 45.449219 22.632812 " fill-opacity="1" fill-rule="nonzero"/><path fill="#000000" d="M 43.167969 24.425781 C 43.191406 24.371094 43.199219 24.335938 43.199219 24.335938 C 43.195312 24.335938 43.175781 24.363281 43.144531 24.410156 C 42.640625 25.105469 41.871094 25.1875 41.402344 24.742188 C 41.269531 24.625 41.21875 24.527344 41.1875 24.542969 C 41.105469 24.574219 41.367188 25.101562 42.011719 25.15625 C 42.523438 25.203125 42.980469 24.878906 43.167969 24.425781 Z M 43.167969 24.425781 " fill-opacity="1" fill-rule="nonzero"/><path fill="#000000" d="M 40.378906 24.128906 C 40.640625 23.972656 40.859375 24.042969 40.855469 24.03125 C 40.855469 24.03125 40.808594 24.007812 40.71875 23.996094 C 40.410156 23.960938 40.074219 24.15625 39.964844 24.480469 C 39.894531 24.691406 39.90625 24.921875 39.941406 25.152344 C 40.082031 25.976562 40.675781 26.519531 41.269531 26.601562 C 41.195312 26.683594 41.183594 26.78125 41.203125 26.894531 C 41.269531 27.277344 41.425781 27.460938 41.800781 27.324219 C 41.84375 27.308594 41.894531 27.285156 41.9375 27.257812 C 42.042969 27.78125 42.472656 28.007812 42.9375 28.421875 C 43.699219 29.074219 43.714844 29.089844 43.84375 29.183594 C 44.003906 29.300781 44.597656 29.75 44.777344 29.84375 C 45.140625 30.03125 45.523438 29.933594 45.566406 29.496094 C 45.589844 29.292969 45.554688 29.105469 45.636719 28.964844 C 45.710938 28.828125 45.945312 28.792969 45.972656 28.582031 C 45.988281 28.433594 45.839844 28.363281 45.902344 28.292969 C 45.921875 28.273438 45.960938 28.246094 45.972656 28.203125 C 46.007812 28.035156 45.820312 27.96875 45.980469 27.742188 C 46.070312 27.632812 46.140625 27.585938 46.15625 27.570312 C 46.457031 27.65625 46.488281 27.671875 46.574219 27.671875 C 46.683594 27.667969 46.804688 27.582031 46.828125 27.410156 C 46.921875 27.589844 47.15625 27.617188 47.371094 27.671875 C 47.550781 27.714844 47.667969 27.730469 47.710938 27.722656 C 47.78125 27.742188 47.796875 27.832031 47.789062 27.902344 C 47.785156 27.988281 47.679688 28.167969 47.773438 28.277344 C 47.832031 28.347656 47.945312 28.320312 47.859375 28.457031 C 47.820312 28.503906 47.769531 28.582031 47.765625 28.667969 C 47.75 28.847656 47.859375 29.03125 48.046875 29.082031 C 48.269531 29.160156 48.058594 29.351562 48.15625 29.792969 C 48.265625 30.277344 48.640625 30.519531 49.058594 30.417969 C 49.417969 30.332031 49.726562 30.0625 50.039062 29.828125 C 50.421875 29.535156 50.800781 29.226562 51.128906 28.882812 C 51.484375 28.507812 51.632812 28.226562 51.609375 28.214844 C 51.527344 28.152344 51.4375 28.59375 49.953125 29.71875 C 49.664062 29.933594 49.347656 30.203125 49.03125 30.277344 C 48.65625 30.367188 48.382812 30.128906 48.292969 29.761719 C 48.226562 29.496094 48.28125 29.378906 48.273438 29.21875 C 48.265625 29.089844 48.203125 29.015625 48.085938 28.980469 C 47.921875 28.9375 47.851562 28.804688 47.855469 28.675781 C 47.855469 28.558594 47.957031 28.480469 47.957031 28.378906 C 47.960938 28.332031 47.917969 28.289062 47.886719 28.273438 C 47.703125 28.210938 47.820312 28.027344 47.816406 27.902344 C 47.816406 27.824219 47.789062 27.730469 47.714844 27.714844 C 47.820312 27.648438 47.152344 27.488281 47.046875 27.433594 C 46.914062 27.363281 46.914062 27.234375 46.960938 27.097656 C 47.105469 26.699219 47.550781 26.355469 47.695312 25.953125 C 47.792969 25.707031 47.753906 25.582031 47.753906 25.5625 C 47.75 25.5625 47.746094 25.601562 47.730469 25.664062 C 47.589844 26.238281 46.886719 26.605469 46.800781 27.164062 C 46.71875 26.910156 46.566406 26.5 46.335938 25.992188 C 46.28125 25.871094 46.28125 25.875 46.308594 26 C 46.597656 27.167969 46.738281 27.277344 46.675781 27.4375 C 46.621094 27.578125 46.519531 27.527344 46.378906 27.492188 C 46.234375 27.457031 45.714844 27.308594 45.699219 27.375 C 45.675781 27.433594 46.070312 27.542969 46.15625 27.566406 C 45.980469 27.667969 45.828125 27.828125 45.886719 28.019531 C 45.902344 28.074219 45.929688 28.136719 45.914062 28.179688 C 45.910156 28.203125 45.886719 28.214844 45.859375 28.242188 C 45.824219 28.265625 45.804688 28.332031 45.820312 28.375 C 45.847656 28.457031 45.902344 28.515625 45.886719 28.570312 C 45.863281 28.71875 45.640625 28.746094 45.546875 28.90625 C 45.386719 29.160156 45.527344 29.535156 45.347656 29.714844 C 45.226562 29.832031 45.015625 29.8125 44.84375 29.71875 C 44.683594 29.632812 44.089844 29.183594 43.933594 29.070312 C 43.742188 28.9375 42.9375 28.226562 42.628906 27.996094 C 42.351562 27.78125 42.113281 27.570312 42.011719 27.214844 C 42.378906 26.929688 42.011719 26.4375 41.953125 26.476562 L 41.628906 26.4375 C 41.628906 26.4375 41.625 26.4375 41.625 26.441406 C 41.617188 26.441406 41.585938 26.457031 41.546875 26.464844 C 41.503906 26.484375 41.441406 26.496094 41.367188 26.535156 C 41.292969 26.511719 41.183594 26.480469 41.050781 26.421875 C 40.554688 26.203125 40.191406 25.730469 40.085938 25.128906 C 40.050781 24.914062 40.035156 24.695312 40.082031 24.515625 C 40.125 24.335938 40.25 24.203125 40.378906 24.128906 Z M 40.378906 24.128906 " fill-opacity="1" fill-rule="nonzero"/><path fill="#000000" d="M 37.554688 26.59375 C 37.742188 26.507812 37.863281 26.484375 37.863281 26.476562 C 37.863281 26.476562 37.742188 26.476562 37.53125 26.539062 C 36.539062 26.851562 35.980469 27.933594 36.300781 29.046875 C 36.757812 30.59375 38.851562 31.585938 40.066406 30.484375 C 40.375 30.207031 40.582031 29.792969 40.582031 29.148438 C 40.582031 28.777344 40.503906 28.71875 40.425781 29.132812 C 40.324219 29.601562 40.265625 29.964844 39.894531 30.289062 C 38.648438 31.359375 36.410156 30.011719 36.460938 28.265625 C 36.46875 27.800781 36.640625 27.398438 36.875 27.121094 C 37.097656 26.84375 37.363281 26.683594 37.554688 26.59375 Z M 37.554688 26.59375 " fill-opacity="1" fill-rule="nonzero"/><path fill="#000000" d="M 40.433594 27.070312 C 40.429688 27.054688 40.324219 26.84375 40.3125 26.847656 C 40.40625 27.300781 40.453125 27.558594 40.472656 27.65625 C 40.59375 28.324219 40.53125 28.710938 40.613281 28.714844 C 40.726562 28.726562 40.734375 27.734375 40.433594 27.070312 Z M 40.433594 27.070312 " fill-opacity="1" fill-rule="nonzero"/><path fill="#000000" d="M 54.242188 34.21875 C 54.714844 34.003906 55.292969 33.855469 55.589844 33.492188 C 55.675781 33.382812 55.699219 33.3125 55.683594 33.304688 C 55.667969 33.292969 55.621094 33.34375 55.523438 33.429688 C 54.65625 34.144531 53.933594 33.378906 50.605469 36.863281 C 47.347656 40.277344 46.15625 43.042969 44.878906 43.789062 C 43.824219 44.421875 42.460938 43.28125 41.449219 42.523438 C 39.65625 41.207031 38.417969 40.335938 37.367188 38.5 C 37.464844 38.714844 37.574219 38.96875 37.78125 39.285156 C 38.71875 40.8125 40.5 42.070312 42.066406 43.285156 C 42.601562 43.683594 43.253906 44.109375 43.910156 44.222656 C 44 44.238281 44.09375 44.25 44.191406 44.25 C 45.707031 44.363281 46.636719 41.953125 49.542969 38.476562 C 49.902344 38.222656 50.667969 37.601562 51.617188 36.894531 C 53.316406 35.628906 51.453125 37.03125 54.910156 34.4375 C 54.886719 34.453125 53.8125 35.109375 52.402344 36.132812 C 52.222656 36.269531 50.878906 37.242188 49.894531 38.0625 C 50.199219 37.707031 50.503906 37.371094 50.800781 37.054688 C 51.667969 36.136719 53.089844 34.75 54.242188 34.21875 Z M 54.242188 34.21875 " fill-opacity="1" fill-rule="nonzero"/><path fill="#000000" d="M 55.710938 31.589844 C 54.882812 31.578125 53.75 31.6875 53.132812 32.242188 C 53.074219 32.285156 53.046875 32.316406 53.046875 32.316406 C 53.179688 32.25 53.421875 32.097656 53.820312 31.980469 C 54.800781 31.652344 56.089844 31.757812 56.089844 31.644531 C 56.089844 31.609375 55.945312 31.59375 55.710938 31.589844 Z M 55.710938 31.589844 " fill-opacity="1" fill-rule="nonzero"/><path fill="#000000" d="M 53.488281 32.644531 C 53.425781 32.679688 53.394531 32.703125 53.394531 32.707031 C 53.878906 32.535156 54.488281 32.300781 55.167969 32.183594 C 55.878906 32.050781 56.445312 32.089844 56.445312 32.019531 C 56.457031 31.878906 54.625 31.914062 53.488281 32.644531 Z M 53.488281 32.644531 " fill-opacity="1" fill-rule="nonzero"/><path fill="#000000" d="M 56.496094 32.332031 C 56.496094 32.207031 54.890625 32.371094 53.960938 32.847656 C 53.847656 32.90625 53.851562 32.90625 53.972656 32.875 C 54.3125 32.789062 55.046875 32.605469 55.414062 32.539062 C 56.023438 32.417969 56.503906 32.398438 56.496094 32.332031 Z M 56.496094 32.332031 " fill-opacity="1" fill-rule="nonzero"/><path fill="#000000" d="M 55.5 32.988281 C 55.492188 32.867188 54.570312 33.003906 54.058594 33.273438 C 53.9375 33.335938 53.863281 33.382812 53.867188 33.390625 C 53.871094 33.394531 53.953125 33.375 54.085938 33.34375 C 54.222656 33.3125 54.402344 33.265625 54.582031 33.222656 C 55.175781 33.0625 55.507812 33.066406 55.5 32.988281 Z M 55.5 32.988281 " fill-opacity="1" fill-rule="nonzero"/><path fill="#000000" d="M 18.292969 41.394531 C 18.449219 41.390625 18.574219 41.386719 18.714844 41.386719 C 19.621094 41.402344 20.957031 41.667969 21.558594 42.347656 C 22.238281 43.121094 21.582031 43.734375 21.359375 46.414062 C 21.289062 47.300781 21.257812 48.183594 21.519531 48.960938 C 21.769531 49.746094 22.355469 50.324219 22.988281 50.53125 C 23.300781 50.636719 23.644531 50.632812 23.902344 50.570312 C 24.164062 50.515625 24.378906 50.445312 24.5625 50.429688 C 24.75 50.40625 24.890625 50.4375 25 50.507812 C 25.109375 50.582031 25.183594 50.679688 25.230469 50.765625 C 25.320312 50.941406 25.335938 51.058594 25.375 51.054688 C 25.410156 51.054688 25.457031 50.9375 25.402344 50.699219 C 25.371094 50.582031 25.300781 50.4375 25.160156 50.308594 C 25.019531 50.175781 24.777344 50.097656 24.546875 50.109375 C 24.3125 50.113281 24.078125 50.171875 23.839844 50.203125 C 23.605469 50.242188 23.375 50.230469 23.128906 50.136719 C 22.644531 49.957031 22.171875 49.476562 21.980469 48.816406 C 21.675781 47.855469 21.894531 46.117188 22.0625 45.113281 C 22.265625 43.945312 22.496094 43.453125 22.382812 42.820312 C 22.128906 41.316406 19.90625 40.777344 18.359375 40.828125 C 18.382812 40.816406 23.070312 37.996094 26.835938 34.832031 C 29.027344 32.976562 29.34375 32.382812 31.554688 30.679688 C 32.304688 30.101562 33.011719 29.554688 33.613281 28.988281 C 34.785156 27.875 35.996094 26.488281 36.472656 24.949219 C 36.761719 25.765625 37.378906 26.269531 38.042969 26.425781 C 38.425781 26.511719 38.632812 26.457031 38.632812 26.414062 C 38.644531 26.253906 36.285156 26.160156 36.75 23.125 C 36.914062 22.125 37.175781 21.390625 37.960938 20.707031 C 39.152344 19.652344 40.617188 19.519531 41.527344 19.980469 C 42.144531 20.273438 42.472656 20.8125 42.621094 20.980469 L 42.742188 20.679688 C 42.972656 20.089844 43.628906 19.785156 44.273438 19.792969 C 44.867188 19.804688 45.359375 20.105469 45.707031 20.394531 C 46.382812 20.976562 46.792969 21.835938 46.617188 21.441406 C 46.589844 21.382812 46.546875 21.289062 46.480469 21.175781 C 46.355469 20.949219 46.15625 20.621094 45.820312 20.277344 C 44.664062 19.121094 43.148438 19.394531 42.539062 20.273438 C 42.289062 19.988281 42.203125 19.941406 42.011719 19.792969 C 41.917969 19.730469 41.820312 19.664062 41.714844 19.613281 C 41.5625 19.527344 41.253906 19.414062 41.058594 19.371094 C 40.945312 19.34375 40.824219 19.328125 40.707031 19.3125 C 39.054688 19.171875 37.386719 20.21875 36.722656 21.660156 C 36.351562 22.496094 36.121094 23.871094 36.453125 24.878906 C 36.109375 25.761719 35.582031 26.53125 34.96875 27.226562 C 33.730469 28.628906 32.621094 29.421875 31.316406 30.359375 C 29.019531 32.015625 28.9375 32.402344 26.488281 34.414062 C 22.65625 37.542969 18.171875 40.28125 18 40.378906 C 17.699219 40.546875 17.632812 40.96875 17.886719 41.238281 C 17.992188 41.34375 18.15625 41.402344 18.296875 41.394531 Z M 18.292969 41.394531 " fill-opacity="1" fill-rule="nonzero"/><path fill="#000000" d="M 18 40.375 C 18.003906 40.375 18.003906 40.371094 18.003906 40.371094 C 17.992188 40.378906 17.992188 40.378906 18 40.375 Z M 18 40.375 " fill-opacity="1" fill-rule="nonzero"/><path fill="#000000" d="M 49.820312 32.207031 C 49.464844 32.5625 49.414062 33.128906 49.402344 33.644531 C 49.398438 33.769531 49.402344 33.855469 49.410156 33.886719 C 49.191406 34.09375 48.964844 34.308594 48.738281 34.527344 C 48.695312 34.4375 48.5 34.265625 48.183594 34.046875 C 46.648438 32.984375 44.570312 32.226562 43.113281 32.105469 C 42.96875 32.089844 42.886719 32.085938 42.886719 32.089844 C 44.929688 32.746094 46.023438 33.054688 48.050781 34.25 C 48.359375 34.429688 48.574219 34.558594 48.675781 34.582031 C 47.84375 35.398438 47.132812 36.160156 46.332031 37.105469 C 46.277344 36.707031 45.976562 36.125 45.75 35.78125 C 45.441406 35.320312 44.878906 34.691406 44.488281 34.308594 C 43.921875 33.75 43.246094 33.230469 42.582031 32.789062 C 42.523438 32.75 42.480469 32.722656 42.445312 32.699219 C 42.429688 32.691406 42.417969 32.683594 42.410156 32.679688 C 42.453125 32.089844 42.570312 31.464844 42.871094 30.957031 C 43.183594 30.414062 43.71875 29.933594 44.398438 29.824219 C 44.511719 29.8125 44.574219 29.808594 44.574219 29.804688 C 44.546875 29.808594 43.972656 29.691406 43.300781 30.238281 C 42.46875 30.90625 42.269531 32.023438 42.265625 33.09375 C 42.265625 33.46875 42.285156 33.695312 42.320312 33.691406 C 42.359375 33.691406 42.367188 33.464844 42.382812 33.097656 C 42.386719 32.976562 42.394531 32.832031 42.40625 32.683594 C 42.429688 32.699219 42.480469 32.746094 42.558594 32.8125 C 43.164062 33.308594 43.75 33.785156 44.378906 34.410156 C 45.96875 35.972656 46.097656 36.792969 46.285156 37.152344 C 45.089844 38.570312 44.910156 38.996094 44.363281 39.335938 C 44.140625 39.472656 43.878906 39.542969 43.632812 39.496094 C 43.15625 39.414062 42.789062 38.949219 42.492188 38.582031 C 41.011719 36.726562 40.691406 36.144531 39.851562 34.839844 C 39.878906 34.882812 40.632812 36.3125 41.96875 38.085938 C 42.285156 38.5 42.664062 38.996094 42.90625 39.222656 C 43.367188 39.65625 43.886719 39.789062 44.433594 39.449219 C 45.183594 38.988281 45.375 38.28125 47.609375 35.875 C 48.851562 34.542969 50.21875 33.273438 51.671875 32.113281 C 51.953125 31.894531 52.351562 31.5 52.675781 31.648438 C 52.597656 32.035156 52.453125 32.324219 52.347656 32.511719 C 52.234375 32.703125 52.15625 32.800781 52.167969 32.808594 C 52.175781 32.816406 52.269531 32.734375 52.402344 32.546875 C 52.640625 32.199219 52.734375 31.871094 52.773438 31.703125 C 52.8125 31.828125 52.796875 31.980469 52.773438 32.113281 C 53.910156 31.578125 55.207031 31.386719 56.449219 31.566406 C 56.132812 30.980469 55.867188 30.363281 55.664062 29.726562 C 55.667969 29.730469 55.675781 29.730469 55.683594 29.726562 C 55.710938 29.707031 55.699219 29.660156 55.675781 29.589844 C 55.695312 29.582031 55.707031 29.574219 55.707031 29.574219 C 55.707031 29.574219 55.691406 29.578125 55.671875 29.582031 C 55.605469 29.371094 55.570312 29.21875 55.574219 28.949219 C 55.582031 28.625 55.585938 28.328125 55.570312 28.328125 C 55.539062 28.324219 55.277344 29.101562 55.558594 29.613281 C 53.90625 30 52.554688 30.613281 51.207031 31.34375 C 50.875 31.523438 50.089844 31.972656 49.820312 32.207031 Z M 49.445312 33.855469 C 49.460938 33.800781 49.46875 33.730469 49.480469 33.652344 C 49.511719 33.71875 49.570312 33.710938 49.644531 33.671875 C 49.574219 33.734375 49.503906 33.796875 49.445312 33.855469 Z M 55.574219 29.625 C 55.578125 29.632812 55.582031 29.640625 55.589844 29.648438 C 55.394531 29.699219 55.199219 29.757812 55.007812 29.816406 C 55.191406 29.753906 55.378906 29.691406 55.574219 29.625 Z M 52.625 31.511719 C 52.53125 31.496094 52.394531 31.503906 52.214844 31.585938 C 52.347656 31.507812 52.496094 31.453125 52.625 31.511719 Z M 52.625 31.511719 " fill-opacity="1" fill-rule="nonzero"/><path fill="#000000" d="M 57.390625 32.765625 C 58.101562 33.476562 59.03125 34.054688 59.320312 34.996094 C 59.539062 35.671875 59.429688 36.480469 59.378906 37.332031 C 59.257812 39.023438 59.121094 40.871094 58.613281 42.679688 C 58.183594 44.289062 57.308594 45.773438 56.742188 47.417969 C 55.363281 51.308594 55.5 54.542969 56.402344 57.035156 C 57.316406 59.566406 58.996094 60.921875 58.464844 60.050781 C 57.773438 58.960938 57.300781 58.210938 56.859375 56.878906 C 55.859375 53.84375 56.191406 50.640625 57.285156 47.609375 C 57.5625 46.816406 57.902344 46.050781 58.253906 45.269531 C 59.488281 42.5 59.707031 40.792969 59.855469 37.359375 C 59.886719 36.507812 59.96875 35.628906 59.695312 34.871094 C 59.226562 33.566406 57.84375 33.058594 56.992188 31.992188 C 56.046875 30.847656 55.921875 29.777344 55.878906 29.78125 C 56.011719 30.792969 56.515625 31.898438 57.390625 32.765625 Z M 57.390625 32.765625 " fill-opacity="1" fill-rule="nonzero"/><path fill="#000000" d="M 29.128906 49.875 C 29.148438 49.898438 29.433594 49.605469 29.878906 49 C 30.429688 48.246094 30.800781 47.566406 31.09375 46.875 C 33.277344 46.785156 35.328125 46.210938 37.335938 45.46875 C 39.746094 44.554688 41.664062 43.523438 41.683594 43.515625 C 39.847656 44.324219 38.40625 44.992188 36.28125 45.660156 C 36.722656 43.660156 35.5625 41.839844 34.890625 38.847656 C 35.460938 39.207031 36.304688 39.019531 36.742188 38.519531 C 36.859375 38.386719 36.894531 38.285156 36.867188 38.269531 C 36.777344 38.210938 36.605469 38.703125 35.8125 38.875 C 35.359375 38.960938 35.101562 38.882812 34.886719 38.835938 C 34.527344 37.21875 34.207031 35.167969 35.207031 33.800781 C 35.550781 33.316406 36.03125 32.992188 36.785156 32.402344 C 37.742188 31.652344 38.3125 31.179688 38.269531 31.128906 C 38.226562 31.070312 37.621094 31.488281 36.640625 32.210938 C 35.570312 33.007812 34.796875 33.464844 34.429688 34.839844 C 34.308594 35.289062 34.257812 35.765625 34.253906 36.25 C 34.253906 37.835938 34.824219 39.953125 35.382812 41.453125 C 35.925781 42.914062 36.429688 44.167969 36.273438 45.660156 C 34.632812 46.175781 32.921875 46.546875 31.207031 46.613281 C 32.042969 44.421875 31.84375 41.945312 30.085938 40.332031 C 26.714844 37.320312 22.898438 42.617188 26.515625 45.71875 C 27.722656 46.71875 29.285156 46.917969 30.851562 46.882812 C 30.605469 47.472656 30.304688 48.066406 29.757812 48.910156 C 29.335938 49.527344 29.09375 49.855469 29.128906 49.875 Z M 26.691406 45.5 C 23.367188 42.648438 26.800781 37.789062 29.890625 40.539062 C 31.578125 42.082031 31.757812 44.460938 30.945312 46.621094 C 29.4375 46.652344 27.863281 46.480469 26.691406 45.5 Z M 26.691406 45.5 " fill-opacity="1" fill-rule="nonzero"/><path fill="#000000" d="M 34.429688 49.402344 C 37.167969 50.074219 40.179688 49.242188 42.835938 48.4375 C 43.21875 48.320312 46.042969 47.425781 46.496094 47.265625 C 49.210938 46.296875 51.625 45.054688 53.304688 44.027344 C 54.660156 43.203125 56.300781 42.042969 55.925781 42.242188 C 55.292969 42.585938 54.726562 42.949219 53.160156 43.761719 C 49.550781 45.640625 46.53125 46.722656 42.667969 47.886719 C 39.601562 48.835938 36.738281 49.589844 33.625 48.816406 C 33.386719 48.757812 33.195312 48.714844 33.070312 48.683594 C 32.507812 48.574219 33.078125 49.070312 34.429688 49.402344 Z M 34.429688 49.402344 " fill-opacity="1" fill-rule="nonzero"/><path fill="#000000" d="M 65.871094 54.441406 C 66.957031 57.957031 64.652344 61.6875 60.953125 62.585938 C 60.175781 62.757812 60.625 62.6875 59.664062 62.820312 C 53.996094 63.386719 49.089844 58.007812 46.980469 52.71875 C 46.261719 50.914062 46.003906 49.597656 45.8125 47.96875 C 45.8125 47.992188 45.816406 49.0625 46.066406 50.230469 C 46.65625 53.3125 48.394531 56.808594 50.769531 59.351562 C 53.769531 62.566406 56.957031 63.601562 59.714844 63.359375 C 59.945312 63.328125 60.175781 63.300781 60.402344 63.273438 C 62.003906 62.972656 63.484375 62.339844 64.769531 61.003906 C 66.71875 58.988281 67.136719 56.171875 66.308594 53.949219 C 68.347656 51.425781 69.382812 47.164062 68.210938 43.199219 C 68.113281 42.882812 68.023438 42.601562 67.921875 42.367188 C 67.828125 42.128906 67.742188 41.933594 67.660156 41.78125 C 67.5 41.472656 67.402344 41.320312 67.375 41.335938 C 67.3125 41.359375 67.480469 41.789062 67.675781 42.449219 C 67.890625 43.089844 68.183594 44.402344 68.25 45.617188 C 68.417969 48.535156 67.539062 51.425781 66.066406 53.382812 C 65.273438 51.753906 63.664062 50.484375 61.859375 50.949219 C 60.265625 51.386719 59.429688 52.921875 60.28125 54.4375 C 61.414062 56.363281 64.085938 56.261719 65.871094 54.441406 Z M 60.511719 53.082031 C 60.574219 52.289062 61.234375 51.707031 62.007812 51.5 C 63.613281 51.097656 65.023438 52.375 65.65625 53.875 C 64.265625 55.402344 62.570312 55.582031 61.542969 54.957031 C 60.914062 54.582031 60.445312 53.828125 60.511719 53.082031 Z M 60.511719 53.082031 " fill-opacity="1" fill-rule="nonzero"/><path fill="#000000" d="M 18.605469 62.585938 C 17.953125 64.449219 17.25 65.902344 17.375 65.953125 C 17.441406 65.988281 17.667969 65.671875 18.007812 65.039062 C 18.398438 64.316406 18.789062 63.421875 19.078125 62.667969 C 20.078125 62.78125 21.0625 62.558594 22.019531 62.222656 C 23.96875 61.519531 25.289062 60.429688 26.796875 59.019531 C 28.742188 57.179688 28.859375 57.117188 30.519531 55.105469 C 33.4375 51.53125 34.25 50.644531 34.433594 49.65625 C 34.476562 49.453125 34.410156 49.679688 34.332031 49.875 C 33.929688 50.828125 33.324219 51.355469 30.214844 54.847656 C 28.5 56.777344 28.554688 56.691406 26.429688 58.621094 C 24.960938 59.945312 23.6875 61.011719 21.828125 61.679688 C 21.007812 61.96875 20.136719 62.175781 19.273438 62.113281 C 19.5 61.421875 19.628906 60.722656 19.449219 60.023438 C 19.15625 58.886719 18.261719 58.34375 17.363281 58.523438 C 15.542969 58.890625 15.941406 61.957031 18.605469 62.585938 Z M 17.039062 59.292969 C 17.28125 59.050781 17.675781 58.996094 17.984375 59.078125 C 18.484375 59.195312 18.808594 59.65625 18.941406 60.160156 C 19.113281 60.800781 18.96875 61.460938 18.789062 62.042969 C 16.96875 61.652344 16.425781 59.914062 17.039062 59.292969 Z M 17.039062 59.292969 " fill-opacity="1" fill-rule="nonzero"/><path fill="#000000" d="M 40.503906 35.753906 C 41.503906 36.984375 42.640625 38.320312 43.96875 37.453125 C 44.292969 37.230469 44.140625 37.324219 44.339844 37.148438 C 44.367188 37.121094 44.511719 36.945312 44.535156 36.917969 C 44.632812 36.761719 44.589844 36.828125 44.691406 36.667969 C 44.765625 36.507812 44.816406 36.414062 44.84375 36.289062 C 44.871094 36.203125 44.898438 36.125 44.902344 36.039062 C 44.929688 35.773438 44.933594 35.980469 44.921875 35.582031 C 44.917969 35.523438 44.867188 35.289062 44.828125 35.21875 C 44.777344 35.121094 44.75 35.027344 44.691406 34.976562 C 44.480469 34.722656 44.4375 34.8125 44.550781 35.054688 C 44.585938 35.113281 44.597656 35.199219 44.628906 35.285156 C 44.648438 35.328125 44.65625 35.378906 44.660156 35.433594 C 44.679688 35.617188 44.683594 35.460938 44.675781 35.789062 C 44.675781 35.855469 44.65625 35.921875 44.648438 35.992188 C 44.640625 36.050781 44.582031 36.261719 44.503906 36.421875 C 44.4375 36.558594 44.476562 36.492188 44.308594 36.75 C 44.296875 36.765625 44.152344 36.9375 44.136719 36.953125 C 43.953125 37.109375 44.105469 37.011719 43.816406 37.214844 C 42.699219 37.933594 41.710938 36.761719 40.664062 35.859375 C 40.539062 35.753906 40.46875 35.699219 40.46875 35.703125 C 40.46875 35.703125 40.480469 35.722656 40.503906 35.753906 Z M 40.503906 35.753906 " fill-opacity="1" fill-rule="nonzero"/><path fill="#000000" d="M 20.554688 67.546875 C 20.570312 67.46875 20.574219 67.425781 20.574219 67.425781 C 20.5625 67.421875 20.554688 67.59375 20.375 67.847656 C 20.128906 68.195312 19.722656 68.4375 19.347656 68.714844 C 18.375 69.457031 18.46875 70.285156 18.992188 70.617188 C 19.636719 71.03125 20.414062 70.699219 21.011719 70.902344 C 21.339844 71.019531 21.328125 71.113281 21.289062 71.285156 C 21.175781 71.757812 20.601562 72.109375 20.511719 72.714844 C 20.460938 73.058594 20.605469 73.40625 20.835938 73.648438 C 21.40625 74.285156 22.332031 74.203125 23.164062 74.0625 C 26.746094 73.488281 30.324219 70.523438 33.59375 71.121094 C 36.453125 71.632812 35.648438 74.832031 40.25 75.199219 C 43.523438 75.445312 46.402344 73.59375 48.382812 72.9375 C 52.007812 71.664062 56.027344 73.867188 59.425781 71.476562 C 59.875 71.164062 60.164062 70.851562 60.339844 70.628906 C 60.515625 70.40625 60.570312 70.265625 60.546875 70.253906 C 60.515625 70.226562 60.410156 70.328125 60.207031 70.503906 C 56.449219 73.765625 52.441406 70.988281 48.210938 72.414062 C 46.164062 73.089844 43.390625 74.871094 40.292969 74.628906 C 39.347656 74.550781 38.359375 74.308594 37.605469 73.75 C 36.28125 72.785156 35.949219 70.972656 33.699219 70.554688 C 30.890625 70.054688 27.90625 71.949219 25.382812 72.945312 C 24.496094 73.296875 22.714844 73.886719 21.785156 73.730469 C 21.15625 73.625 20.816406 73.144531 20.859375 72.761719 C 20.90625 72.296875 21.460938 71.917969 21.585938 71.351562 C 21.597656 71.277344 21.613281 71.207031 21.605469 71.117188 C 21.597656 71.03125 21.554688 70.921875 21.492188 70.859375 C 21.042969 70.410156 20.132812 70.636719 19.671875 70.597656 C 18.875 70.542969 18.644531 70.046875 18.847656 69.550781 C 19.214844 68.648438 20.332031 68.417969 20.554688 67.546875 Z M 20.554688 67.546875 " fill-opacity="1" fill-rule="nonzero"/><path fill="#000000" d="M 31.632812 35.761719 C 31.871094 34.851562 32.488281 34.53125 33.1875 33.84375 C 34.960938 32.140625 35.921875 30.332031 35.808594 30.273438 C 35.660156 30.1875 34.828125 31.894531 32.988281 33.640625 C 32.21875 34.386719 31.589844 34.734375 31.371094 35.695312 C 31.195312 36.433594 31.253906 37.121094 30.582031 37.820312 C 30.296875 38.125 29.988281 38.296875 29.769531 38.390625 C 29.511719 38.503906 29.273438 38.550781 29.511719 38.515625 C 29.847656 38.46875 30.308594 38.273438 30.6875 37.929688 C 31.460938 37.230469 31.445312 36.460938 31.632812 35.761719 Z M 31.632812 35.761719 " fill-opacity="1" fill-rule="nonzero"/><path fill="#000000" d="M 31.699219 69.675781 C 31.65625 69.746094 31.632812 69.785156 31.632812 69.785156 C 31.835938 69.527344 32.179688 69.125 32.722656 68.308594 C 32.734375 68.285156 33.371094 67.320312 33.730469 66.632812 C 35.039062 64.257812 36.140625 61.222656 36.960938 58.632812 C 37.269531 57.640625 37.429688 57.035156 37.367188 57.015625 C 37.082031 56.90625 35.171875 64.445312 31.894531 69.359375 C 31.808594 69.496094 31.742188 69.601562 31.699219 69.671875 Z M 31.699219 69.675781 " fill-opacity="1" fill-rule="nonzero"/><path fill="#000000" d="M 46.484375 65.582031 C 46.929688 66.863281 47.472656 68.234375 47.714844 69.472656 C 47.933594 70.585938 47.863281 71.203125 47.886719 71.207031 C 47.890625 70.808594 48.132812 69.917969 47.453125 67.613281 C 47.160156 66.605469 46.632812 65.140625 46.070312 63.515625 C 45.03125 60.574219 44.234375 58.292969 44.113281 58.34375 C 44.003906 58.378906 44.289062 59.300781 46.484375 65.582031 Z M 46.484375 65.582031 " fill-opacity="1" fill-rule="nonzero"/></svg>