<svg xmlns="http://www.w3.org/2000/svg" xmlns:xlink="http://www.w3.org/1999/xlink" width="110" zoomAndPan="magnify" viewBox="0 0 82.5 101.249998" height="135" preserveAspectRatio="xMidYMid meet" version="1.0"><path fill="#000000" d="M 33.539062 19.75 C 34.113281 20.8125 34.980469 21.703125 36.03125 22.304688 C 34.980469 22.902344 34.113281 23.792969 33.539062 24.855469 C 32.96875 23.792969 32.101562 22.902344 31.050781 22.304688 C 32.101562 21.703125 32.96875 20.8125 33.539062 19.75 Z M 29 22.980469 C 30.996094 23.421875 32.542969 25.082031 32.859375 27.101562 C 32.976562 27.878906 34.105469 27.878906 34.222656 27.101562 C 34.539062 25.082031 36.085938 23.421875 38.082031 22.980469 C 38.796875 22.820312 38.796875 21.785156 38.082031 21.625 C 36.085938 21.183594 34.539062 19.527344 34.222656 17.503906 C 34.105469 16.726562 32.976562 16.726562 32.859375 17.503906 C 32.542969 19.527344 30.996094 21.183594 29 21.625 C 28.28125 21.785156 28.285156 22.820312 29 22.980469 Z M 41.796875 26.753906 C 43.363281 25.082031 45.152344 25.875 46.46875 27.113281 C 46.746094 27.375 47.183594 27.359375 47.445312 27.082031 C 48.378906 26.085938 50.222656 24.675781 52.085938 26.425781 C 53.257812 27.53125 53.320312 29.40625 52.21875 30.585938 L 47.238281 35.90625 L 41.929688 30.914062 C 40.753906 29.808594 40.695312 27.933594 41.796875 26.753906 Z M 47.769531 21.367188 C 46.710938 22.5 46.46875 24.140625 47.089844 25.507812 C 49.066406 23.828125 51.285156 23.773438 53.03125 25.414062 C 53.871094 26.203125 54.351562 27.277344 54.386719 28.433594 C 54.425781 29.671875 53.988281 30.710938 53.160156 31.601562 L 54.566406 32.925781 L 60.78125 26.28125 C 62.199219 24.765625 62.125 22.378906 60.613281 20.957031 C 58.640625 19.105469 56.449219 19.890625 54.699219 21.765625 C 54.4375 22.046875 54 22.058594 53.722656 21.796875 C 51.863281 20.046875 49.625 19.382812 47.769531 21.367188 Z M 40.984375 31.925781 L 46.589844 37.199219 C 46.980469 37.570312 47.597656 37.546875 47.964844 37.15625 L 52.214844 32.613281 L 53.871094 34.171875 C 54.285156 34.566406 54.945312 34.542969 55.335938 34.125 L 61.789062 27.230469 C 63.730469 25.160156 63.625 21.890625 61.558594 19.945312 C 59.199219 17.726562 56.410156 18.253906 54.164062 20.34375 C 51.796875 18.402344 48.972656 18.054688 46.761719 20.417969 C 45.636719 21.617188 45.1875 23.234375 45.4375 24.773438 C 43.761719 24.074219 42.09375 24.410156 40.789062 25.804688 C 39.164062 27.542969 39.25 30.292969 40.984375 31.925781 Z M 59.152344 41.164062 C 58.792969 40.601562 58.316406 40.113281 57.761719 39.742188 C 58.316406 39.371094 58.792969 38.886719 59.152344 38.320312 C 59.511719 38.886719 59.984375 39.371094 60.542969 39.742188 C 59.984375 40.113281 59.511719 40.601562 59.152344 41.164062 Z M 62.421875 39.066406 C 63.140625 39.226562 63.140625 40.261719 62.421875 40.421875 C 61.085938 40.71875 60.042969 41.832031 59.835938 43.1875 C 59.714844 43.964844 58.589844 43.960938 58.46875 43.1875 C 58.257812 41.832031 57.21875 40.71875 55.878906 40.421875 C 55.160156 40.261719 55.160156 39.226562 55.878906 39.066406 C 57.21875 38.769531 58.257812 37.65625 58.46875 36.300781 C 58.589844 35.523438 59.714844 35.523438 59.835938 36.300781 C 60.042969 37.65625 61.085938 38.769531 62.421875 39.066406 Z M 60.566406 55.304688 C 60.769531 53.796875 60.449219 52.195312 59.625 50.601562 C 57.203125 45.933594 51.253906 42.675781 45.488281 42.058594 C 45.8125 42.878906 46.101562 43.738281 46.347656 44.601562 C 52.082031 45.785156 57.621094 49.054688 59.832031 53.3125 C 60.175781 53.980469 60.421875 54.644531 60.566406 55.304688 Z M 46.441406 58.0625 C 47.609375 54.503906 47.679688 50.28125 46.734375 46.105469 C 51.851562 47.320312 56.71875 50.320312 58.605469 53.953125 C 58.980469 54.679688 59.214844 55.398438 59.304688 56.09375 C 57.011719 58.601562 51.855469 59.382812 46.441406 58.0625 Z M 59.046875 58.3125 C 59.078125 58.234375 59.109375 58.152344 59.136719 58.066406 C 57.878906 58.953125 56.242188 59.570312 54.304688 59.875 C 51.738281 60.277344 48.863281 60.101562 45.949219 59.367188 C 45.609375 60.167969 45.210938 60.90625 44.765625 61.570312 C 47.988281 62.4375 51.183594 62.582031 53.863281 61.96875 C 55.996094 61.480469 57.59375 60.558594 58.5 59.308594 C 58.503906 59.300781 58.511719 59.292969 58.519531 59.28125 C 58.738281 58.976562 58.914062 58.65625 59.046875 58.316406 Z M 39.925781 63.917969 C 45.285156 61.730469 47.527344 53.289062 44.914062 44.617188 C 43.582031 40.207031 41.207031 36.410156 38.226562 33.929688 C 35.46875 31.628906 32.507812 30.730469 29.84375 31.371094 C 31.800781 31.609375 33.839844 32.6875 35.78125 34.554688 C 41.425781 39.976562 44.605469 50.511719 42.898438 58.164062 C 42.339844 60.667969 41.316406 62.628906 39.925781 63.917969 Z M 33.277344 46.890625 C 34.308594 44.765625 36.507812 43.179688 39.472656 42.425781 C 39.730469 42.996094 39.96875 43.585938 40.191406 44.1875 C 37.207031 44.445312 34.804688 45.398438 33.277344 46.890625 Z M 41.554688 57.820312 C 41.339844 58.738281 41.160156 59.363281 40.832031 60.136719 C 38.183594 58.890625 35.957031 57.214844 34.523438 55.367188 C 33.050781 53.46875 32.515625 51.511719 33.019531 49.855469 C 33.023438 49.84375 33.027344 49.832031 33.03125 49.820312 C 34.125 52.867188 37.257812 55.839844 41.554688 57.820312 Z M 34.027344 48.125 C 35.355469 46.675781 37.710938 45.738281 40.65625 45.542969 C 41.828125 49.277344 42.246094 53.117188 41.804688 56.40625 C 37.457031 54.3125 34.414062 51.085938 34.027344 48.125 Z M 38.933594 62.945312 C 34.683594 62.3125 30.121094 56.855469 27.992188 49.796875 C 25.863281 42.738281 26.648438 35.660156 29.835938 32.773438 C 31.449219 33.011719 33.160156 33.957031 34.824219 35.554688 C 36.359375 37.03125 37.734375 38.945312 38.863281 41.152344 C 35.167969 42.164062 32.546875 44.390625 31.609375 47.347656 C 31.160156 48.765625 31.121094 50.265625 31.492188 51.804688 C 31.878906 55.296875 35.164062 58.996094 40.207031 61.375 C 39.832031 61.992188 39.40625 62.519531 38.933594 62.945312 Z M 37.007812 64.054688 L 36.730469 64.132812 C 34.34375 64.703125 31.839844 63.386719 29.792969 61.421875 C 24.492188 56.332031 21.464844 46.300781 23.066406 39.117188 C 23.582031 36.808594 24.515625 35.042969 25.769531 33.953125 C 25.78125 33.945312 25.796875 33.933594 25.808594 33.921875 C 26.246094 33.546875 26.722656 33.257812 27.230469 33.054688 L 27.613281 32.917969 C 27.714844 32.890625 27.8125 32.863281 27.914062 32.839844 C 25.132812 36.511719 24.585938 43.289062 26.667969 50.199219 C 28.75 57.105469 32.953125 62.441406 37.296875 63.957031 C 37.199219 63.996094 37.105469 64.027344 37.007812 64.054688 Z M 49.945312 41.589844 C 48.265625 41.058594 46.558594 40.730469 44.871094 40.609375 C 43.425781 37.484375 41.445312 34.804688 39.113281 32.859375 C 35.84375 30.140625 32.269531 29.175781 29.046875 30.152344 C 27.464844 30.632812 26.066406 31.550781 24.886719 32.882812 C 23.398438 34.164062 22.304688 36.191406 21.71875 38.816406 C 20.011719 46.46875 23.1875 57 28.835938 62.425781 C 30.964844 64.46875 33.207031 65.570312 35.328125 65.648438 C 35.957031 65.773438 36.578125 65.839844 37.191406 65.839844 C 39.769531 65.839844 42.109375 64.71875 43.847656 62.753906 C 47.472656 63.816406 51.121094 64.019531 54.167969 63.320312 C 56.644531 62.757812 58.519531 61.644531 59.621094 60.125 C 60.570312 59.167969 61.25 58.058594 61.640625 56.828125 C 62.328125 54.65625 62.054688 52.285156 60.851562 49.964844 C 58.9375 46.269531 54.859375 43.140625 49.945312 41.589844 Z M 49.945312 41.589844 " fill-opacity="1" fill-rule="evenodd"/></svg>