<svg xmlns="http://www.w3.org/2000/svg" xmlns:xlink="http://www.w3.org/1999/xlink" width="110" zoomAndPan="magnify" viewBox="0 0 82.5 101.249998" height="135" preserveAspectRatio="xMidYMid meet" version="1.0"><path fill="#000000" d="M 47.8125 34.632812 C 47.8125 34.632812 47.8125 34.640625 47.8125 34.640625 C 47.8125 34.640625 47.8125 34.648438 47.8125 34.648438 C 47.8125 34.648438 47.8125 34.640625 47.8125 34.632812 Z M 47.8125 34.632812 C 47.8125 34.632812 47.8125 34.628906 47.8125 34.632812 C 47.804688 34.605469 47.804688 34.582031 47.796875 34.566406 C 47.804688 34.589844 47.804688 34.613281 47.8125 34.632812 Z M 51.679688 27.964844 C 51.527344 27.65625 51.472656 27.324219 51.519531 26.976562 C 51.570312 26.621094 51.792969 26.296875 52.121094 26.148438 C 52.234375 26.097656 52.351562 26.066406 52.476562 26.058594 C 52.5 26.058594 52.527344 26.058594 52.550781 26.058594 C 52.632812 26.058594 52.710938 26.066406 52.785156 26.089844 C 52.902344 26.132812 53.023438 26.1875 53.132812 26.246094 C 53.164062 26.265625 53.191406 26.289062 53.222656 26.3125 C 53.226562 26.3125 53.242188 26.320312 53.25 26.320312 C 53.425781 26.363281 53.617188 26.40625 53.773438 26.511719 C 53.871094 26.570312 53.949219 26.660156 54.003906 26.753906 C 54.046875 26.828125 54.089844 26.917969 54.105469 27.003906 C 54.136719 27.183594 54.148438 27.375 54.082031 27.542969 C 54.015625 27.714844 53.945312 27.871094 53.8125 27.996094 C 53.664062 28.136719 53.492188 28.238281 53.316406 28.328125 C 53.226562 28.371094 53.125 28.417969 53.03125 28.445312 C 52.949219 28.476562 52.867188 28.488281 52.777344 28.503906 C 52.707031 28.519531 52.617188 28.535156 52.542969 28.527344 C 52.449219 28.519531 52.351562 28.503906 52.261719 28.476562 C 52.175781 28.445312 52.09375 28.410156 52.019531 28.347656 C 51.878906 28.253906 51.761719 28.121094 51.679688 27.964844 Z M 52.535156 26.925781 C 52.542969 26.925781 52.550781 26.917969 52.558594 26.917969 C 52.550781 26.917969 52.542969 26.917969 52.535156 26.925781 Z M 52.550781 26.929688 C 52.566406 26.929688 52.578125 26.925781 52.59375 26.925781 C 52.578125 26.925781 52.566406 26.925781 52.550781 26.929688 Z M 52.519531 26.929688 C 52.527344 26.929688 52.527344 26.929688 52.535156 26.925781 C 52.527344 26.925781 52.527344 26.925781 52.519531 26.929688 Z M 52.382812 27.132812 C 52.382812 27.199219 52.382812 27.257812 52.382812 27.324219 C 52.394531 27.382812 52.410156 27.441406 52.425781 27.492188 C 52.441406 27.53125 52.460938 27.566406 52.484375 27.597656 C 52.492188 27.605469 52.5 27.617188 52.511719 27.625 C 52.519531 27.632812 52.527344 27.632812 52.535156 27.640625 C 52.535156 27.640625 52.542969 27.640625 52.542969 27.640625 C 52.574219 27.640625 52.59375 27.640625 52.625 27.640625 C 52.699219 27.625 52.765625 27.605469 52.832031 27.582031 C 52.933594 27.53125 53.035156 27.476562 53.140625 27.417969 C 53.167969 27.398438 53.191406 27.367188 53.222656 27.34375 C 53.226562 27.335938 53.234375 27.324219 53.242188 27.308594 C 53.25 27.292969 53.25 27.269531 53.257812 27.257812 C 53.257812 27.25 53.257812 27.242188 53.257812 27.234375 C 53.183594 27.210938 53.109375 27.191406 53.035156 27.175781 C 52.964844 27.152344 52.890625 27.117188 52.839844 27.066406 C 52.792969 27.058594 52.742188 27.042969 52.699219 27.011719 C 52.652344 26.992188 52.617188 26.96875 52.574219 26.945312 C 52.566406 26.945312 52.558594 26.9375 52.550781 26.9375 C 52.542969 26.9375 52.527344 26.9375 52.519531 26.9375 C 52.507812 26.9375 52.5 26.945312 52.492188 26.945312 C 52.484375 26.953125 52.476562 26.953125 52.46875 26.960938 C 52.453125 26.96875 52.449219 26.984375 52.441406 26.992188 C 52.433594 27.003906 52.417969 27.027344 52.410156 27.042969 C 52.394531 27.070312 52.386719 27.101562 52.382812 27.132812 Z M 49.410156 32.226562 C 49.367188 31.925781 49.382812 31.589844 49.519531 31.3125 C 49.59375 31.164062 49.707031 31.03125 49.839844 30.925781 C 50.097656 30.726562 50.363281 30.550781 50.6875 30.484375 C 50.757812 30.46875 50.839844 30.460938 50.914062 30.460938 C 50.988281 30.460938 51.054688 30.460938 51.128906 30.46875 C 51.222656 30.46875 51.320312 30.476562 51.421875 30.484375 C 51.488281 30.484375 51.5625 30.507812 51.621094 30.535156 C 51.695312 30.535156 51.769531 30.542969 51.835938 30.558594 C 51.902344 30.566406 51.960938 30.578125 52.027344 30.601562 C 52.09375 30.625 52.183594 30.660156 52.242188 30.707031 C 52.367188 30.800781 52.476562 30.890625 52.550781 31.03125 C 52.625 31.15625 52.683594 31.304688 52.707031 31.445312 C 52.757812 31.710938 52.777344 31.984375 52.71875 32.25 C 52.660156 32.53125 52.5 32.78125 52.277344 32.964844 C 52.175781 33.054688 52.0625 33.136719 51.953125 33.210938 C 51.726562 33.347656 51.472656 33.46875 51.210938 33.519531 C 50.929688 33.570312 50.640625 33.546875 50.375 33.445312 C 50.125 33.347656 49.875 33.210938 49.707031 32.996094 C 49.609375 32.871094 49.535156 32.742188 49.484375 32.597656 C 49.449219 32.464844 49.425781 32.34375 49.410156 32.226562 Z M 50.273438 31.828125 C 50.265625 31.929688 50.265625 32.035156 50.28125 32.136719 C 50.296875 32.203125 50.308594 32.269531 50.332031 32.335938 C 50.347656 32.367188 50.363281 32.390625 50.375 32.417969 C 50.398438 32.441406 50.421875 32.46875 50.449219 32.492188 C 50.507812 32.53125 50.566406 32.566406 50.632812 32.597656 C 50.707031 32.617188 50.773438 32.640625 50.847656 32.65625 C 50.90625 32.65625 50.964844 32.65625 51.023438 32.65625 C 51.097656 32.640625 51.164062 32.617188 51.238281 32.597656 C 51.371094 32.53125 51.496094 32.457031 51.621094 32.375 C 51.6875 32.316406 51.753906 32.257812 51.820312 32.191406 C 51.835938 32.167969 51.851562 32.144531 51.859375 32.117188 C 51.863281 32.078125 51.878906 32.050781 51.878906 32.011719 C 51.886719 31.917969 51.886719 31.820312 51.871094 31.726562 C 51.859375 31.65625 51.84375 31.589844 51.820312 31.523438 C 51.8125 31.503906 51.796875 31.480469 51.785156 31.457031 C 51.769531 31.453125 51.761719 31.445312 51.746094 31.4375 C 51.726562 31.429688 51.703125 31.421875 51.679688 31.421875 C 51.402344 31.40625 51.121094 31.421875 50.839844 31.4375 C 50.832031 31.4375 50.824219 31.4375 50.820312 31.4375 C 50.773438 31.4375 50.730469 31.429688 50.6875 31.414062 C 50.613281 31.457031 50.539062 31.503906 50.464844 31.546875 C 50.414062 31.589844 50.363281 31.628906 50.316406 31.679688 C 50.308594 31.6875 50.300781 31.703125 50.296875 31.71875 C 50.296875 31.746094 50.28125 31.792969 50.273438 31.828125 Z M 66.988281 71.640625 C 67.019531 71.789062 67.03125 71.945312 67.03125 72.09375 C 67.03125 72.335938 67.011719 72.585938 66.9375 72.824219 C 66.863281 73.066406 66.757812 73.304688 66.621094 73.527344 C 66.488281 73.738281 66.332031 73.9375 66.164062 74.132812 C 65.847656 74.492188 65.492188 74.804688 65.078125 75.054688 C 64.675781 75.296875 64.21875 75.476562 63.773438 75.621094 C 63.339844 75.769531 62.898438 75.910156 62.449219 76.007812 C 61.976562 76.109375 61.496094 76.175781 61.019531 76.242188 C 60.539062 76.308594 60.058594 76.382812 59.582031 76.390625 C 59.125 76.40625 58.667969 76.375 58.210938 76.339844 C 57.988281 76.324219 57.769531 76.300781 57.546875 76.289062 C 57.3125 76.273438 57.074219 76.257812 56.839844 76.226562 C 56.589844 76.191406 56.339844 76.167969 56.101562 76.082031 C 55.824219 75.96875 55.558594 75.828125 55.351562 75.601562 C 55.136719 75.363281 54.953125 75.089844 54.820312 74.796875 C 54.695312 74.53125 54.597656 74.242188 54.59375 73.945312 C 54.585938 73.660156 54.652344 73.386719 54.769531 73.125 C 54.855469 72.933594 54.96875 72.742188 55.101562 72.574219 C 55.253906 72.375 55.417969 72.175781 55.609375 72.011719 C 55.800781 71.847656 56.007812 71.703125 56.214844 71.554688 C 56.617188 71.265625 57.039062 71.015625 57.511719 70.859375 C 57.71875 70.792969 57.921875 70.726562 58.136719 70.6875 C 58.386719 70.644531 58.644531 70.617188 58.894531 70.601562 C 59.09375 70.59375 59.292969 70.585938 59.484375 70.585938 C 59.566406 70.535156 59.648438 70.511719 59.742188 70.503906 C 59.800781 70.496094 59.855469 70.496094 59.914062 70.488281 C 59.816406 70.011719 59.722656 69.53125 59.640625 69.042969 C 59.558594 68.570312 59.5 68.097656 59.425781 67.625 C 59.351562 67.167969 59.273438 66.707031 59.183594 66.25 C 59.09375 65.792969 59.007812 65.34375 58.917969 64.882812 C 58.835938 64.433594 58.761719 63.984375 58.691406 63.53125 C 58.609375 63.058594 58.535156 62.585938 58.460938 62.109375 C 58.394531 61.640625 58.335938 61.167969 58.269531 60.695312 C 58.144531 59.765625 58.027344 58.84375 57.929688 57.914062 C 57.921875 57.867188 57.921875 57.832031 57.914062 57.792969 C 57.863281 57.367188 57.777344 56.9375 57.703125 56.515625 C 57.621094 56.066406 57.539062 55.625 57.457031 55.171875 C 57.3125 54.292969 57.128906 53.421875 57.039062 52.542969 C 57 52.21875 56.921875 51.894531 56.882812 51.5625 C 56.863281 51.347656 56.855469 51.132812 56.839844 50.917969 C 56.824219 50.832031 56.789062 50.742188 56.765625 50.660156 C 56.75 50.617188 56.757812 50.570312 56.757812 50.527344 C 56.722656 50.527344 56.683594 50.535156 56.648438 50.535156 C 56.40625 50.542969 56.15625 50.519531 55.917969 50.492188 C 55.453125 50.4375 54.996094 50.363281 54.53125 50.292969 C 54.320312 50.261719 54.105469 50.21875 53.890625 50.195312 C 53.671875 50.164062 53.449219 50.152344 53.222656 50.128906 C 52.984375 50.105469 52.757812 50.0625 52.535156 49.980469 C 52.335938 49.90625 52.136719 49.820312 51.953125 49.707031 C 51.746094 49.582031 51.527344 49.441406 51.355469 49.257812 C 51.253906 49.148438 51.15625 49.035156 51.070312 48.917969 C 51.003906 48.828125 50.953125 48.742188 50.890625 48.652344 C 50.773438 48.46875 50.671875 48.269531 50.566406 48.074219 C 50.449219 47.847656 50.332031 47.609375 50.234375 47.367188 C 50.074219 46.953125 49.949219 46.523438 49.792969 46.109375 C 49.640625 45.691406 49.46875 45.285156 49.34375 44.855469 C 49.210938 44.414062 49.128906 43.953125 49.042969 43.496094 C 48.976562 43.222656 48.910156 42.949219 48.804688 42.691406 C 48.703125 42.425781 48.585938 42.160156 48.476562 41.894531 C 48.269531 41.382812 48.152344 40.84375 47.988281 40.328125 C 47.847656 39.894531 47.722656 39.457031 47.621094 39.015625 C 47.515625 38.554688 47.441406 38.089844 47.355469 37.632812 C 47.265625 37.183594 47.183594 36.738281 47.132812 36.28125 C 47.089844 35.84375 47.050781 35.402344 46.964844 34.972656 C 46.949219 34.894531 46.925781 34.804688 46.914062 34.722656 C 46.722656 33.835938 46.527344 32.957031 46.375 32.0625 C 46.210938 31.171875 46.085938 30.277344 45.945312 29.382812 C 45.875 28.910156 45.792969 28.445312 45.71875 27.972656 C 45.644531 27.515625 45.585938 27.066406 45.542969 26.597656 C 45.519531 26.386719 45.496094 26.179688 45.476562 25.964844 C 45.453125 25.742188 45.445312 25.527344 45.421875 25.308594 C 45.410156 25.101562 45.371094 24.894531 45.351562 24.6875 C 45.320312 24.464844 45.296875 24.234375 45.277344 24.007812 C 45.269531 23.925781 45.292969 23.84375 45.328125 23.777344 C 45.3125 23.75 45.296875 23.710938 45.292969 23.683594 C 45.277344 23.617188 45.261719 23.550781 45.253906 23.484375 C 45.246094 23.394531 45.246094 23.289062 45.269531 23.210938 C 45.328125 23.011719 45.421875 22.832031 45.59375 22.707031 C 45.652344 22.664062 45.710938 22.609375 45.769531 22.566406 C 45.859375 22.5 45.953125 22.441406 46.050781 22.382812 C 46.449219 22.144531 46.882812 21.96875 47.308594 21.785156 C 47.761719 21.59375 48.210938 21.398438 48.667969 21.246094 C 48.886719 21.171875 49.101562 21.105469 49.328125 21.046875 C 49.566406 20.988281 49.792969 20.941406 50.039062 20.898438 C 50.507812 20.816406 50.980469 20.773438 51.460938 20.726562 C 52.019531 20.683594 52.585938 20.648438 53.15625 20.648438 C 53.523438 20.648438 53.882812 20.660156 54.246094 20.699219 C 54.738281 20.75 55.234375 20.816406 55.71875 20.921875 C 55.949219 20.964844 56.175781 21.007812 56.398438 21.082031 C 56.699219 21.171875 56.980469 21.296875 57.230469 21.488281 C 57.347656 21.578125 57.457031 21.664062 57.546875 21.785156 C 57.585938 21.835938 57.621094 21.878906 57.664062 21.933594 C 57.738281 22.027344 57.789062 22.117188 57.789062 22.234375 C 57.789062 22.316406 57.769531 22.398438 57.722656 22.472656 C 57.738281 22.484375 57.746094 22.507812 57.761719 22.523438 C 57.796875 22.589844 57.835938 22.707031 57.835938 22.789062 C 57.828125 22.90625 57.8125 23.011719 57.753906 23.113281 C 57.71875 23.179688 57.664062 23.246094 57.621094 23.304688 C 57.652344 23.496094 57.695312 23.683594 57.738281 23.875 C 57.894531 24.554688 58.09375 25.226562 58.238281 25.90625 C 58.378906 26.570312 58.492188 27.234375 58.628906 27.898438 C 58.710938 28.253906 58.800781 28.601562 58.882812 28.957031 C 58.976562 29.382812 59.066406 29.8125 59.148438 30.238281 C 59.285156 30.984375 59.382812 31.738281 59.539062 32.484375 C 59.640625 32.9375 59.757812 33.386719 59.855469 33.835938 C 59.964844 34.324219 60.066406 34.8125 60.164062 35.300781 C 60.257812 35.773438 60.332031 36.246094 60.398438 36.71875 C 60.457031 37.175781 60.523438 37.640625 60.597656 38.097656 C 60.664062 38.511719 60.722656 38.933594 60.8125 39.347656 C 60.863281 39.554688 60.921875 39.753906 60.972656 39.960938 C 61.039062 40.210938 61.097656 40.46875 61.152344 40.726562 C 61.238281 41.171875 61.277344 41.613281 61.292969 42.0625 C 61.3125 42.964844 61.320312 43.875 61.253906 44.773438 C 61.238281 44.988281 61.203125 45.210938 61.171875 45.425781 C 61.136719 45.636719 61.097656 45.859375 61.054688 46.074219 C 60.960938 46.539062 60.835938 47.003906 60.65625 47.441406 C 60.472656 47.882812 60.230469 48.296875 59.941406 48.679688 C 59.667969 49.050781 59.351562 49.390625 59.015625 49.691406 C 58.816406 49.871094 58.609375 50.019531 58.371094 50.128906 C 58.167969 50.230469 57.953125 50.304688 57.738281 50.371094 C 57.703125 50.378906 57.65625 50.394531 57.621094 50.402344 C 57.628906 50.425781 57.644531 50.445312 57.652344 50.46875 C 57.671875 50.550781 57.703125 50.632812 57.722656 50.710938 C 57.746094 50.816406 57.746094 50.910156 57.753906 51.015625 C 57.761719 51.148438 57.769531 51.289062 57.777344 51.421875 C 57.796875 51.621094 57.84375 51.820312 57.871094 52.019531 C 57.910156 52.234375 57.929688 52.449219 57.953125 52.660156 C 57.96875 52.808594 57.988281 52.957031 58.019531 53.105469 C 58.085938 53.535156 58.167969 53.960938 58.246094 54.390625 C 58.328125 54.847656 58.410156 55.304688 58.492188 55.765625 C 58.5625 56.191406 58.652344 56.621094 58.726562 57.054688 C 58.808594 57.515625 58.851562 57.972656 58.894531 58.4375 C 59.015625 59.449219 59.152344 60.460938 59.285156 61.464844 C 59.40625 62.375 59.558594 63.273438 59.714844 64.183594 C 59.875 65.121094 60.066406 66.058594 60.238281 66.996094 C 60.320312 67.453125 60.382812 67.921875 60.449219 68.378906 C 60.515625 68.851562 60.605469 69.324219 60.695312 69.796875 C 60.730469 69.996094 60.773438 70.195312 60.8125 70.402344 C 60.886719 70.386719 60.96875 70.378906 61.039062 70.355469 C 61.253906 70.296875 61.46875 70.238281 61.6875 70.203125 C 61.902344 70.164062 62.117188 70.128906 62.335938 70.097656 C 62.550781 70.070312 62.765625 70.046875 62.984375 70.023438 C 63.132812 70.011719 63.289062 69.980469 63.4375 69.980469 C 63.472656 69.980469 63.507812 69.980469 63.546875 69.988281 C 63.738281 70.003906 63.9375 70.039062 64.121094 70.078125 C 64.429688 70.136719 64.742188 70.195312 65.042969 70.261719 C 65.257812 70.3125 65.476562 70.363281 65.691406 70.429688 C 66.042969 70.542969 66.414062 70.683594 66.65625 70.976562 C 66.804688 71.15625 66.945312 71.390625 66.988281 71.640625 Z M 51.667969 38.886719 C 51.636719 38.894531 51.613281 38.894531 51.585938 38.902344 C 52.035156 38.84375 52.484375 38.785156 52.933594 38.71875 C 53.359375 38.652344 53.773438 38.578125 54.1875 38.460938 C 54.605469 38.347656 55.019531 38.214844 55.441406 38.105469 C 55.867188 37.988281 56.285156 37.871094 56.714844 37.757812 C 57.066406 37.664062 57.421875 37.558594 57.769531 37.425781 C 57.847656 37.390625 57.929688 37.34375 58.003906 37.292969 C 58.171875 37.152344 58.320312 36.996094 58.476562 36.851562 C 58.644531 36.6875 58.816406 36.523438 58.960938 36.339844 C 59.007812 36.265625 59.050781 36.191406 59.085938 36.117188 C 59.117188 36.023438 59.148438 35.925781 59.167969 35.824219 C 59.167969 35.808594 59.167969 35.792969 59.167969 35.777344 C 59.035156 35.792969 58.902344 35.75 58.800781 35.652344 C 58.777344 35.640625 58.761719 35.617188 58.742188 35.601562 C 58.660156 35.578125 58.585938 35.566406 58.503906 35.550781 C 58.226562 35.527344 57.945312 35.519531 57.65625 35.535156 C 57.398438 35.550781 57.140625 35.578125 56.882812 35.609375 C 56.625 35.644531 56.367188 35.683594 56.117188 35.71875 C 55.652344 35.792969 55.203125 35.882812 54.753906 36 C 54.304688 36.117188 53.855469 36.25 53.398438 36.355469 C 52.957031 36.453125 52.507812 36.53125 52.0625 36.644531 C 51.636719 36.746094 51.214844 36.863281 50.8125 37.027344 C 50.664062 37.09375 50.515625 37.160156 50.375 37.242188 C 50.222656 37.332031 50.082031 37.425781 49.933594 37.53125 C 49.59375 37.789062 49.257812 38.0625 48.984375 38.386719 C 48.953125 38.421875 48.933594 38.46875 48.902344 38.503906 C 48.910156 38.519531 48.917969 38.535156 48.925781 38.546875 C 48.976562 38.601562 49.019531 38.652344 49.078125 38.695312 C 49.152344 38.75 49.226562 38.785156 49.300781 38.820312 C 49.507812 38.894531 49.71875 38.933594 49.933594 38.960938 C 50.230469 38.984375 50.515625 38.992188 50.8125 38.976562 C 51.113281 38.960938 51.394531 38.925781 51.667969 38.886719 Z M 46.210938 23.554688 C 46.269531 23.621094 46.332031 23.683594 46.398438 23.742188 C 46.542969 23.84375 46.699219 23.941406 46.867188 24.015625 C 47.105469 24.101562 47.347656 24.148438 47.597656 24.183594 C 48.105469 24.230469 48.613281 24.257812 49.125 24.265625 C 49.625 24.273438 50.117188 24.230469 50.613281 24.167969 C 51.261719 24.082031 51.910156 23.984375 52.558594 23.902344 C 52.519531 23.910156 52.484375 23.910156 52.449219 23.917969 C 52.949219 23.84375 53.441406 23.761719 53.9375 23.667969 C 54.460938 23.5625 54.976562 23.488281 55.5 23.421875 C 55.632812 23.402344 55.757812 23.378906 55.890625 23.351562 C 56.023438 23.320312 56.148438 23.277344 56.273438 23.222656 C 56.417969 23.15625 56.558594 23.082031 56.699219 22.996094 C 56.699219 22.988281 56.699219 22.972656 56.699219 22.964844 C 56.691406 22.863281 56.691406 22.757812 56.699219 22.65625 C 56.707031 22.523438 56.742188 22.398438 56.789062 22.269531 C 56.773438 22.257812 56.757812 22.234375 56.738281 22.21875 C 56.625 22.144531 56.515625 22.078125 56.390625 22.019531 C 56.035156 21.886719 55.660156 21.820312 55.292969 21.753906 C 55.003906 21.703125 54.726562 21.660156 54.4375 21.621094 C 54.105469 21.585938 53.773438 21.5625 53.441406 21.546875 C 53.109375 21.53125 52.777344 21.546875 52.449219 21.5625 C 51.804688 21.59375 51.164062 21.644531 50.523438 21.726562 C 50.332031 21.753906 50.132812 21.785156 49.941406 21.820312 C 49.691406 21.871094 49.457031 21.9375 49.210938 22.011719 C 48.820312 22.132812 48.445312 22.277344 48.070312 22.433594 C 47.457031 22.691406 46.816406 22.929688 46.265625 23.3125 C 46.226562 23.34375 46.191406 23.378906 46.152344 23.410156 C 46.152344 23.410156 46.152344 23.410156 46.152344 23.417969 C 46.160156 23.429688 46.160156 23.453125 46.167969 23.46875 C 46.175781 23.496094 46.199219 23.527344 46.210938 23.554688 Z M 48.554688 37.550781 C 48.703125 37.398438 48.871094 37.261719 49.035156 37.125 C 49.21875 36.96875 49.417969 36.8125 49.617188 36.671875 C 49.992188 36.414062 50.398438 36.214844 50.832031 36.066406 C 51.261719 35.917969 51.703125 35.800781 52.144531 35.707031 C 52.601562 35.609375 53.058594 35.519531 53.507812 35.402344 C 53.972656 35.285156 54.429688 35.144531 54.894531 35.039062 C 55.335938 34.945312 55.777344 34.871094 56.222656 34.804688 C 56.714844 34.730469 57.207031 34.65625 57.703125 34.632812 C 57.804688 34.628906 57.910156 34.628906 58.011719 34.628906 C 58.136719 34.628906 58.253906 34.632812 58.378906 34.640625 C 58.535156 34.65625 58.691406 34.664062 58.84375 34.695312 C 58.960938 34.714844 59.066406 34.753906 59.167969 34.8125 C 59.132812 34.648438 59.101562 34.480469 59.066406 34.316406 C 58.882812 33.496094 58.660156 32.675781 58.527344 31.851562 C 58.402344 31.058594 58.269531 30.269531 58.105469 29.488281 C 57.976562 28.894531 57.820312 28.3125 57.703125 27.722656 C 57.589844 27.160156 57.496094 26.597656 57.378906 26.039062 C 57.238281 25.441406 57.066406 24.847656 56.929688 24.25 C 56.898438 24.125 56.875 24.007812 56.855469 23.882812 C 56.789062 23.917969 56.722656 23.949219 56.65625 23.976562 C 56.398438 24.089844 56.132812 24.167969 55.851562 24.222656 C 55.609375 24.265625 55.359375 24.289062 55.109375 24.316406 C 54.527344 24.398438 53.949219 24.53125 53.367188 24.628906 C 52.777344 24.722656 52.183594 24.796875 51.59375 24.878906 C 51.601562 24.878906 51.605469 24.878906 51.613281 24.878906 C 51.320312 24.921875 51.03125 24.96875 50.738281 25.003906 C 50.242188 25.078125 49.742188 25.109375 49.242188 25.113281 C 48.785156 25.121094 48.328125 25.09375 47.878906 25.0625 C 47.621094 25.046875 47.363281 25.019531 47.113281 24.972656 C 46.980469 24.953125 46.855469 24.921875 46.726562 24.878906 C 46.566406 24.820312 46.402344 24.753906 46.25 24.664062 C 46.269531 24.847656 46.300781 25.035156 46.316406 25.21875 C 46.332031 25.441406 46.34375 25.652344 46.367188 25.875 C 46.390625 26.089844 46.410156 26.296875 46.433594 26.511719 C 46.476562 26.96875 46.535156 27.425781 46.609375 27.882812 C 46.691406 28.355469 46.765625 28.820312 46.839844 29.292969 C 46.980469 30.1875 47.113281 31.089844 47.265625 31.976562 C 47.421875 32.839844 47.605469 33.695312 47.789062 34.546875 C 47.789062 34.539062 47.78125 34.53125 47.78125 34.523438 C 47.789062 34.554688 47.796875 34.582031 47.804688 34.613281 C 47.804688 34.621094 47.804688 34.621094 47.804688 34.628906 C 47.878906 34.953125 47.945312 35.277344 47.972656 35.601562 C 48.011719 35.964844 48.039062 36.332031 48.089844 36.695312 C 48.152344 37.050781 48.222656 37.402344 48.289062 37.757812 C 48.296875 37.78125 48.296875 37.804688 48.304688 37.824219 C 48.394531 37.75 48.46875 37.648438 48.554688 37.550781 Z M 58.003906 49.332031 C 58.171875 49.234375 58.328125 49.125 58.476562 49 C 58.816406 48.675781 59.132812 48.3125 59.398438 47.921875 C 59.507812 47.742188 59.617188 47.566406 59.714844 47.382812 C 59.800781 47.195312 59.882812 47.003906 59.957031 46.804688 C 60.074219 46.4375 60.164062 46.066406 60.238281 45.683594 C 60.3125 45.277344 60.371094 44.871094 60.398438 44.464844 C 60.429688 43.84375 60.4375 43.214844 60.421875 42.597656 C 60.414062 42.277344 60.414062 41.953125 60.382812 41.636719 C 60.355469 41.3125 60.304688 40.992188 60.246094 40.675781 C 60.179688 40.378906 60.089844 40.085938 60.015625 39.789062 C 59.898438 39.332031 59.839844 38.859375 59.757812 38.394531 C 59.683594 37.941406 59.617188 37.5 59.558594 37.050781 C 59.558594 37.035156 59.550781 37.027344 59.550781 37.011719 C 59.382812 37.203125 59.199219 37.382812 59.015625 37.558594 C 58.824219 37.742188 58.636719 37.941406 58.410156 38.082031 C 58.171875 38.230469 57.894531 38.320312 57.628906 38.410156 C 57.1875 38.546875 56.742188 38.660156 56.292969 38.785156 C 55.859375 38.902344 55.425781 39.027344 54.988281 39.152344 C 54.539062 39.289062 54.082031 39.421875 53.617188 39.5 C 53.132812 39.582031 52.640625 39.640625 52.144531 39.707031 C 51.804688 39.753906 51.472656 39.8125 51.136719 39.839844 C 50.757812 39.871094 50.390625 39.886719 50.015625 39.855469 C 49.824219 39.839844 49.625 39.820312 49.441406 39.773438 C 49.175781 39.707031 48.917969 39.621094 48.6875 39.480469 C 48.761719 39.738281 48.835938 39.996094 48.917969 40.253906 C 49.042969 40.667969 49.144531 41.097656 49.292969 41.503906 C 49.375 41.722656 49.46875 41.9375 49.558594 42.152344 C 49.648438 42.359375 49.726562 42.582031 49.792969 42.796875 C 49.925781 43.238281 50 43.695312 50.097656 44.148438 C 50.164062 44.433594 50.242188 44.722656 50.347656 45.003906 C 50.449219 45.292969 50.5625 45.578125 50.671875 45.867188 C 50.773438 46.148438 50.871094 46.4375 50.964844 46.71875 C 51.0625 46.988281 51.164062 47.261719 51.289062 47.523438 C 51.480469 47.890625 51.671875 48.253906 51.929688 48.578125 C 52.050781 48.703125 52.183594 48.808594 52.320312 48.902344 C 52.511719 49.011719 52.707031 49.109375 52.902344 49.191406 C 53.175781 49.265625 53.457031 49.285156 53.738281 49.308594 C 54.046875 49.339844 54.347656 49.382812 54.652344 49.433594 C 55.234375 49.523438 55.816406 49.625 56.398438 49.671875 C 56.640625 49.679688 56.882812 49.664062 57.121094 49.621094 C 57.429688 49.546875 57.722656 49.457031 58.003906 49.332031 Z M 66.148438 71.921875 C 66.140625 71.863281 66.125 71.796875 66.105469 71.738281 C 66.082031 71.6875 66.050781 71.636719 66.023438 71.582031 C 65.984375 71.539062 65.957031 71.5 65.914062 71.464844 C 65.851562 71.421875 65.792969 71.390625 65.726562 71.355469 C 65.390625 71.222656 65.027344 71.140625 64.675781 71.058594 C 64.335938 70.976562 63.988281 70.917969 63.648438 70.859375 C 63.480469 70.835938 63.3125 70.84375 63.140625 70.859375 C 63.148438 70.859375 63.15625 70.859375 63.15625 70.859375 C 62.984375 70.875 62.824219 70.894531 62.65625 70.910156 C 62.433594 70.941406 62.21875 70.976562 62 71.015625 C 61.777344 71.050781 61.554688 71.101562 61.335938 71.164062 C 61.21875 71.191406 61.097656 71.207031 60.972656 71.230469 C 61.019531 71.421875 61.0625 71.613281 61.113281 71.804688 C 61.144531 71.914062 61.171875 72.019531 61.203125 72.128906 C 61.238281 72.285156 61.292969 72.453125 61.246094 72.617188 C 61.195312 72.808594 61.011719 72.941406 60.820312 72.933594 C 60.65625 72.933594 60.515625 72.839844 60.445312 72.707031 C 60.390625 72.617188 60.363281 72.5 60.324219 72.394531 C 60.3125 72.34375 60.304688 72.277344 60.320312 72.21875 C 60.3125 72.195312 60.304688 72.175781 60.304688 72.152344 C 60.265625 72.003906 60.222656 71.855469 60.1875 71.707031 C 60.164062 71.621094 60.148438 71.539062 60.125 71.449219 C 59.898438 71.464844 59.667969 71.472656 59.441406 71.472656 C 59.191406 71.472656 58.941406 71.480469 58.691406 71.5 C 58.503906 71.523438 58.3125 71.554688 58.136719 71.597656 C 57.960938 71.640625 57.789062 71.703125 57.621094 71.761719 C 57.445312 71.839844 57.265625 71.921875 57.097656 72.027344 C 56.929688 72.128906 56.773438 72.242188 56.609375 72.351562 C 56.484375 72.445312 56.359375 72.535156 56.242188 72.640625 C 56.125 72.742188 56.015625 72.851562 55.910156 72.972656 C 55.777344 73.148438 55.652344 73.339844 55.558594 73.539062 C 55.527344 73.613281 55.503906 73.6875 55.492188 73.769531 C 55.484375 73.84375 55.484375 73.917969 55.484375 73.984375 C 55.5 74.078125 55.527344 74.175781 55.558594 74.265625 C 55.644531 74.472656 55.75 74.664062 55.875 74.847656 C 55.941406 74.9375 56.015625 75.011719 56.09375 75.082031 C 56.160156 75.128906 56.226562 75.171875 56.292969 75.203125 C 56.441406 75.261719 56.597656 75.296875 56.75 75.328125 C 57.289062 75.394531 57.835938 75.421875 58.371094 75.46875 C 58.652344 75.488281 58.925781 75.511719 59.207031 75.511719 C 59.5 75.511719 59.796875 75.503906 60.089844 75.476562 C 60.707031 75.410156 61.335938 75.328125 61.953125 75.210938 C 62.589844 75.082031 63.207031 74.890625 63.820312 74.671875 C 64.011719 74.597656 64.203125 74.515625 64.386719 74.425781 C 64.5625 74.34375 64.726562 74.242188 64.886719 74.132812 C 65.011719 74.035156 65.132812 73.929688 65.25 73.820312 C 65.367188 73.703125 65.484375 73.585938 65.59375 73.457031 C 65.757812 73.246094 65.914062 73.03125 66.03125 72.785156 C 66.082031 72.648438 66.117188 72.511719 66.148438 72.375 C 66.15625 72.226562 66.15625 72.078125 66.148438 71.921875 Z M 39.046875 20.601562 C 39.078125 20.875 39.09375 21.148438 39.070312 21.414062 C 39.046875 21.679688 38.988281 21.945312 38.976562 22.210938 C 38.960938 22.433594 38.953125 22.648438 38.945312 22.871094 C 38.945312 23.335938 38.988281 23.816406 38.945312 24.28125 C 38.902344 24.730469 38.804688 25.167969 38.761719 25.617188 C 38.738281 25.839844 38.730469 26.058594 38.71875 26.28125 C 38.703125 26.488281 38.679688 26.695312 38.652344 26.902344 C 38.621094 27.125 38.585938 27.351562 38.546875 27.574219 C 38.519531 27.78125 38.488281 27.988281 38.460938 28.195312 C 38.386719 28.660156 38.253906 29.117188 38.140625 29.574219 C 38.03125 30.019531 37.949219 30.460938 37.839844 30.90625 C 37.730469 31.347656 37.617188 31.796875 37.539062 32.25 C 37.5 32.46875 37.464844 32.691406 37.421875 32.914062 C 37.375 33.136719 37.316406 33.355469 37.273438 33.570312 C 37.222656 33.792969 37.183594 34.019531 37.148438 34.242188 C 37.109375 34.457031 37.089844 34.679688 37.050781 34.894531 C 36.96875 35.34375 36.867188 35.785156 36.75 36.222656 C 36.675781 36.472656 36.601562 36.722656 36.5 36.960938 C 36.410156 37.175781 36.316406 37.382812 36.234375 37.597656 C 36.152344 37.804688 36.078125 38.015625 35.996094 38.230469 C 35.917969 38.453125 35.820312 38.667969 35.738281 38.886719 C 35.578125 39.316406 35.453125 39.753906 35.289062 40.179688 C 35.210938 40.394531 35.121094 40.601562 35.03125 40.808594 C 34.949219 41.007812 34.882812 41.214844 34.820312 41.421875 C 34.679688 41.863281 34.539062 42.300781 34.375 42.734375 C 34.222656 43.15625 34.074219 43.585938 33.882812 43.992188 C 33.675781 44.433594 33.433594 44.855469 33.109375 45.21875 C 32.785156 45.585938 32.421875 45.910156 32.003906 46.164062 C 31.621094 46.398438 31.207031 46.582031 30.785156 46.746094 C 30.359375 46.917969 29.902344 46.96875 29.453125 47.054688 C 29.238281 47.101562 29.019531 47.160156 28.804688 47.203125 C 28.582031 47.25 28.363281 47.269531 28.140625 47.285156 C 27.925781 47.300781 27.714844 47.300781 27.507812 47.316406 C 27.484375 47.316406 27.457031 47.316406 27.433594 47.324219 C 27.433594 47.328125 27.433594 47.335938 27.425781 47.34375 C 27.410156 47.46875 27.398438 47.59375 27.398438 47.722656 C 27.402344 47.75 27.402344 47.789062 27.410156 47.816406 C 27.425781 47.90625 27.425781 47.996094 27.417969 48.082031 C 27.402344 48.339844 27.332031 48.578125 27.257812 48.828125 C 27.101562 49.375 26.949219 49.914062 26.828125 50.46875 C 26.777344 50.742188 26.75 51.023438 26.703125 51.296875 C 26.644531 51.628906 26.570312 51.953125 26.496094 52.285156 C 26.417969 52.714844 26.394531 53.148438 26.34375 53.578125 C 26.296875 54.007812 26.269531 54.441406 26.230469 54.878906 C 26.195312 55.296875 26.113281 55.71875 26.070312 56.140625 C 25.96875 57.046875 25.972656 57.972656 25.886719 58.878906 C 25.84375 59.34375 25.78125 59.8125 25.730469 60.277344 C 25.679688 60.734375 25.636719 61.191406 25.582031 61.648438 C 25.523438 62.128906 25.453125 62.601562 25.414062 63.082031 C 25.378906 63.554688 25.332031 64.035156 25.28125 64.507812 C 25.230469 64.964844 25.15625 65.421875 25.082031 65.882812 C 25.007812 66.300781 24.949219 66.722656 24.882812 67.152344 C 24.847656 67.402344 24.800781 67.648438 24.765625 67.898438 C 25.039062 67.972656 25.304688 68.046875 25.578125 68.105469 C 25.789062 68.148438 26.019531 68.179688 26.226562 68.253906 C 26.359375 68.296875 26.492188 68.347656 26.609375 68.414062 C 26.695312 68.464844 26.777344 68.519531 26.859375 68.570312 C 26.960938 68.636719 27.035156 68.71875 27.074219 68.835938 C 27.085938 68.894531 27.09375 68.953125 27.085938 69.011719 C 27.324219 69.144531 27.558594 69.277344 27.792969 69.40625 C 27.933594 69.484375 28.082031 69.566406 28.222656 69.65625 C 28.363281 69.75 28.496094 69.855469 28.636719 69.957031 C 28.628906 69.949219 28.613281 69.945312 28.605469 69.9375 C 28.921875 70.164062 29.261719 70.371094 29.5625 70.621094 C 29.703125 70.742188 29.835938 70.851562 29.976562 70.976562 C 30.09375 71.082031 30.199219 71.183594 30.285156 71.308594 C 30.332031 71.367188 30.375 71.433594 30.410156 71.507812 C 30.449219 71.597656 30.492188 71.679688 30.515625 71.769531 C 30.558594 71.945312 30.582031 72.121094 30.550781 72.300781 C 30.527344 72.410156 30.5 72.535156 30.433594 72.632812 C 30.375 72.714844 30.324219 72.792969 30.242188 72.859375 C 30.144531 72.933594 30.058594 73.007812 29.953125 73.066406 C 29.726562 73.191406 29.484375 73.3125 29.230469 73.386719 C 28.761719 73.511719 28.28125 73.503906 27.800781 73.464844 C 27.34375 73.429688 26.882812 73.390625 26.425781 73.332031 C 26.417969 73.332031 26.410156 73.332031 26.410156 73.332031 C 26.378906 73.332031 26.351562 73.332031 26.320312 73.324219 C 26.285156 73.324219 26.246094 73.320312 26.21875 73.3125 C 25.777344 73.253906 25.339844 73.179688 24.914062 73.089844 C 24.457031 72.992188 24.015625 72.875 23.558594 72.765625 C 23.113281 72.652344 22.671875 72.566406 22.238281 72.441406 C 21.789062 72.308594 21.347656 72.144531 20.910156 71.972656 C 20.460938 71.796875 20.003906 71.636719 19.5625 71.433594 C 19.140625 71.242188 18.738281 71.023438 18.367188 70.75 C 18.167969 70.601562 17.972656 70.460938 17.785156 70.289062 C 17.726562 70.230469 17.660156 70.171875 17.601562 70.105469 C 17.5 69.988281 17.386719 69.855469 17.320312 69.714844 C 17.191406 69.457031 17.109375 69.183594 17.128906 68.886719 C 17.152344 68.585938 17.269531 68.28125 17.484375 68.066406 C 17.640625 67.914062 17.816406 67.785156 18 67.675781 C 18.222656 67.542969 18.472656 67.449219 18.722656 67.375 C 18.957031 67.300781 19.214844 67.277344 19.46875 67.246094 C 19.6875 67.226562 19.917969 67.210938 20.144531 67.210938 C 20.210938 67.210938 20.269531 67.210938 20.335938 67.210938 C 20.757812 67.210938 21.167969 67.242188 21.589844 67.285156 C 22.046875 67.335938 22.503906 67.425781 22.953125 67.515625 C 23.285156 67.582031 23.617188 67.648438 23.949219 67.714844 C 24.019531 67.261719 24.082031 66.8125 24.152344 66.363281 C 24.21875 65.933594 24.308594 65.503906 24.367188 65.078125 C 24.433594 64.613281 24.476562 64.140625 24.523438 63.667969 C 24.566406 63.1875 24.597656 62.714844 24.664062 62.234375 C 24.789062 61.308594 24.882812 60.378906 24.988281 59.457031 C 25.039062 59 25.089844 58.539062 25.113281 58.082031 C 25.132812 57.617188 25.148438 57.160156 25.1875 56.695312 C 25.214844 56.25 25.28125 55.816406 25.347656 55.378906 C 25.414062 54.945312 25.4375 54.507812 25.464844 54.074219 C 25.480469 53.867188 25.511719 53.660156 25.523438 53.453125 C 25.546875 53.238281 25.5625 53.023438 25.589844 52.800781 C 25.621094 52.550781 25.648438 52.308594 25.703125 52.0625 C 25.746094 51.863281 25.789062 51.671875 25.835938 51.472656 C 25.886719 51.199219 25.914062 50.925781 25.960938 50.660156 C 26.011719 50.351562 26.078125 50.039062 26.152344 49.738281 C 26.21875 49.464844 26.296875 49.199219 26.371094 48.933594 C 26.410156 48.800781 26.445312 48.660156 26.484375 48.527344 C 26.511719 48.421875 26.542969 48.328125 26.570312 48.222656 C 26.585938 48.140625 26.59375 48.0625 26.59375 47.972656 C 26.585938 47.890625 26.570312 47.808594 26.5625 47.730469 C 26.5625 47.65625 26.5625 47.582031 26.570312 47.507812 C 26.578125 47.433594 26.585938 47.359375 26.59375 47.292969 C 26.429688 47.261719 26.277344 47.21875 26.113281 47.175781 C 25.902344 47.109375 25.679688 47.050781 25.472656 46.96875 C 24.890625 46.738281 24.457031 46.25 24.035156 45.800781 C 23.960938 45.71875 23.882812 45.636719 23.816406 45.550781 C 23.734375 45.433594 23.660156 45.304688 23.59375 45.171875 C 23.492188 44.972656 23.425781 44.757812 23.351562 44.546875 C 23.195312 44.132812 23.011719 43.726562 22.863281 43.304688 C 22.722656 42.890625 22.578125 42.476562 22.472656 42.058594 C 22.355469 41.589844 22.261719 41.125 22.1875 40.660156 C 22.148438 40.433594 22.121094 40.195312 22.105469 39.960938 C 22.097656 39.746094 22.089844 39.53125 22.097656 39.316406 C 22.105469 38.851562 22.105469 38.386719 22.140625 37.921875 C 22.214844 37.003906 22.355469 36.097656 22.464844 35.1875 C 22.523438 34.714844 22.589844 34.25 22.65625 33.785156 C 22.722656 33.320312 22.804688 32.847656 22.855469 32.382812 C 22.910156 31.929688 22.914062 31.480469 22.929688 31.03125 C 22.945312 30.558594 22.96875 30.09375 22.988281 29.621094 C 23.011719 29.160156 23.046875 28.695312 23.109375 28.238281 C 23.167969 27.796875 23.210938 27.351562 23.285156 26.917969 C 23.320312 26.695312 23.359375 26.464844 23.417969 26.246094 C 23.453125 26.113281 23.484375 25.984375 23.519531 25.851562 C 23.535156 25.800781 23.550781 25.75 23.566406 25.699219 C 23.570312 25.660156 23.578125 25.632812 23.59375 25.601562 C 23.601562 25.585938 23.601562 25.566406 23.609375 25.550781 C 23.617188 25.519531 23.625 25.492188 23.628906 25.460938 C 23.777344 24.914062 23.902344 24.367188 24 23.816406 C 24.09375 23.246094 24.167969 22.671875 24.273438 22.101562 C 24.425781 21.207031 24.609375 20.320312 24.816406 19.433594 C 24.929688 18.984375 25.039062 18.527344 25.105469 18.070312 C 25.171875 17.605469 25.199219 17.132812 25.214844 16.660156 C 25.214844 16.546875 25.304688 16.429688 25.390625 16.363281 C 25.464844 16.3125 25.554688 16.28125 25.648438 16.28125 C 25.671875 16.28125 25.695312 16.28125 25.714844 16.289062 C 25.714844 16.289062 25.714844 16.289062 25.722656 16.289062 C 25.835938 16.125 25.96875 15.980469 26.136719 15.882812 C 26.386719 15.742188 26.6875 15.707031 26.976562 15.660156 C 27.199219 15.625 27.425781 15.585938 27.648438 15.550781 C 28.082031 15.476562 28.515625 15.425781 28.960938 15.425781 C 29.171875 15.425781 29.378906 15.417969 29.59375 15.417969 C 29.867188 15.417969 30.136719 15.425781 30.410156 15.433594 C 30.890625 15.453125 31.371094 15.507812 31.839844 15.582031 C 32.28125 15.652344 32.726562 15.742188 33.167969 15.824219 C 33.640625 15.90625 34.109375 15.992188 34.566406 16.125 C 35.03125 16.261719 35.472656 16.429688 35.910156 16.628906 C 36.300781 16.804688 36.691406 17 37.066406 17.199219 C 37.300781 17.324219 37.539062 17.457031 37.765625 17.605469 C 37.871094 17.671875 37.972656 17.738281 38.0625 17.816406 C 38.105469 17.855469 38.140625 17.890625 38.179688 17.9375 C 38.253906 17.964844 38.328125 18.015625 38.378906 18.085938 C 38.472656 18.203125 38.5625 18.328125 38.628906 18.460938 C 38.679688 18.5625 38.703125 18.675781 38.722656 18.785156 C 38.738281 18.875 38.746094 18.960938 38.746094 19.050781 C 38.746094 19.140625 38.746094 19.234375 38.730469 19.324219 C 38.738281 19.347656 38.761719 19.363281 38.769531 19.382812 C 38.789062 19.472656 38.828125 19.570312 38.851562 19.65625 C 38.871094 19.730469 38.886719 19.8125 38.902344 19.886719 C 38.9375 19.988281 38.980469 20.09375 39.011719 20.203125 C 39.003906 20.335938 39.035156 20.46875 39.046875 20.601562 Z M 24.574219 69.019531 C 24.566406 69.019531 24.566406 69.011719 24.558594 69.011719 C 24.507812 69.285156 24.464844 69.558594 24.40625 69.832031 C 24.390625 69.921875 24.382812 70.003906 24.390625 70.082031 C 24.390625 70.328125 24.148438 70.503906 23.917969 70.488281 C 23.800781 70.484375 23.695312 70.421875 23.617188 70.34375 C 23.535156 70.246094 23.511719 70.144531 23.511719 70.023438 C 23.511719 69.78125 23.578125 69.542969 23.625 69.308594 C 23.667969 69.066406 23.710938 68.8125 23.75 68.570312 C 23.371094 68.488281 22.996094 68.421875 22.621094 68.347656 C 22.253906 68.273438 21.875 68.207031 21.507812 68.15625 C 21.109375 68.113281 20.71875 68.089844 20.320312 68.082031 C 19.960938 68.082031 19.597656 68.105469 19.246094 68.148438 C 19.140625 68.164062 19.03125 68.1875 18.929688 68.214844 C 18.832031 68.246094 18.746094 68.273438 18.65625 68.3125 C 18.492188 68.394531 18.332031 68.472656 18.183594 68.585938 C 18.140625 68.628906 18.097656 68.671875 18.050781 68.71875 C 18.03125 68.746094 18.015625 68.785156 18 68.820312 C 17.992188 68.859375 17.976562 68.894531 17.972656 68.933594 C 17.972656 68.976562 17.972656 69.019531 17.972656 69.066406 C 17.984375 69.117188 18 69.167969 18.015625 69.21875 C 18.058594 69.308594 18.101562 69.390625 18.164062 69.464844 C 18.316406 69.632812 18.492188 69.78125 18.671875 69.921875 C 18.949219 70.121094 19.238281 70.304688 19.539062 70.476562 C 19.835938 70.636719 20.152344 70.761719 20.460938 70.890625 C 21.132812 71.148438 21.796875 71.421875 22.480469 71.621094 C 22.921875 71.746094 23.371094 71.839844 23.816406 71.945312 C 24.25 72.046875 24.675781 72.167969 25.121094 72.253906 C 25.355469 72.300781 25.597656 72.351562 25.835938 72.386719 C 25.953125 72.410156 26.070312 72.425781 26.1875 72.445312 C 26.230469 72.453125 26.269531 72.460938 26.3125 72.460938 C 26.320312 72.460938 26.320312 72.460938 26.328125 72.460938 C 26.359375 72.460938 26.386719 72.460938 26.417969 72.46875 C 26.417969 72.46875 26.425781 72.46875 26.425781 72.46875 C 26.453125 72.46875 26.476562 72.476562 26.503906 72.476562 C 26.511719 72.476562 26.511719 72.476562 26.519531 72.476562 C 26.882812 72.511719 27.25 72.550781 27.609375 72.582031 C 27.972656 72.609375 28.339844 72.640625 28.703125 72.601562 C 28.886719 72.574219 29.054688 72.511719 29.226562 72.445312 C 29.351562 72.386719 29.476562 72.320312 29.59375 72.242188 C 29.609375 72.226562 29.628906 72.203125 29.644531 72.1875 C 29.644531 72.179688 29.652344 72.175781 29.652344 72.175781 C 29.652344 72.167969 29.652344 72.160156 29.660156 72.152344 C 29.660156 72.136719 29.660156 72.113281 29.660156 72.101562 C 29.652344 72.054688 29.636719 72.011719 29.621094 71.972656 C 29.59375 71.914062 29.5625 71.863281 29.535156 71.8125 C 29.402344 71.664062 29.246094 71.546875 29.097656 71.414062 C 28.972656 71.308594 28.847656 71.207031 28.722656 71.101562 C 28.457031 70.917969 28.191406 70.742188 27.933594 70.550781 C 27.933594 70.550781 27.941406 70.554688 27.941406 70.554688 C 27.792969 70.453125 27.648438 70.351562 27.492188 70.261719 C 27.324219 70.164062 27.144531 70.070312 26.96875 69.972656 C 26.628906 69.78125 26.296875 69.574219 25.945312 69.410156 C 25.503906 69.257812 25.039062 69.152344 24.574219 69.019531 Z M 26.320312 16.933594 C 26.320312 16.945312 26.320312 16.953125 26.328125 16.96875 C 26.335938 16.984375 26.34375 17.003906 26.351562 17.019531 C 26.378906 17.066406 26.410156 17.101562 26.4375 17.140625 C 26.558594 17.257812 26.6875 17.34375 26.828125 17.433594 C 27.550781 17.832031 28.347656 18.089844 29.136719 18.320312 C 29.417969 18.402344 29.695312 18.476562 29.984375 18.542969 C 30.25 18.601562 30.515625 18.652344 30.78125 18.695312 C 31.222656 18.777344 31.671875 18.867188 32.105469 18.96875 C 32.328125 19.023438 32.554688 19.082031 32.777344 19.125 C 32.992188 19.167969 33.203125 19.207031 33.410156 19.242188 C 33.632812 19.28125 33.84375 19.324219 34.066406 19.363281 C 34.289062 19.398438 34.507812 19.421875 34.738281 19.449219 C 35.171875 19.503906 35.601562 19.574219 36.035156 19.597656 C 36.269531 19.597656 36.507812 19.582031 36.734375 19.570312 C 36.964844 19.554688 37.183594 19.523438 37.40625 19.480469 C 37.484375 19.457031 37.566406 19.429688 37.648438 19.398438 C 37.699219 19.367188 37.75 19.332031 37.804688 19.296875 C 37.804688 19.289062 37.8125 19.28125 37.8125 19.273438 C 37.816406 19.222656 37.824219 19.175781 37.832031 19.125 C 37.832031 19.035156 37.816406 18.949219 37.804688 18.859375 C 37.804688 18.859375 37.804688 18.851562 37.804688 18.851562 C 37.78125 18.824219 37.765625 18.792969 37.746094 18.761719 C 37.691406 18.734375 37.648438 18.691406 37.605469 18.636719 C 37.597656 18.628906 37.597656 18.628906 37.589844 18.625 C 37.449219 18.484375 37.292969 18.371094 37.132812 18.261719 C 36.683594 17.996094 36.210938 17.757812 35.738281 17.539062 C 35.253906 17.308594 34.757812 17.117188 34.242188 16.960938 C 33.550781 16.785156 32.851562 16.671875 32.152344 16.546875 C 31.78125 16.480469 31.414062 16.414062 31.046875 16.371094 C 30.699219 16.328125 30.34375 16.3125 29.992188 16.304688 C 29.726562 16.304688 29.453125 16.296875 29.1875 16.304688 C 28.886719 16.304688 28.582031 16.3125 28.289062 16.347656 C 28 16.386719 27.714844 16.4375 27.425781 16.480469 C 27.160156 16.527344 26.902344 16.5625 26.636719 16.613281 C 26.601562 16.621094 26.570312 16.636719 26.535156 16.652344 C 26.503906 16.667969 26.484375 16.6875 26.453125 16.710938 C 26.417969 16.746094 26.386719 16.785156 26.359375 16.828125 C 26.34375 16.851562 26.335938 16.878906 26.320312 16.910156 C 26.328125 16.902344 26.328125 16.917969 26.320312 16.933594 Z M 36.019531 35.507812 C 35.746094 35.691406 35.429688 35.800781 35.097656 35.859375 C 34.671875 35.933594 34.234375 35.972656 33.808594 36 C 33.34375 36.03125 32.878906 36.046875 32.421875 36.046875 C 31.957031 36.046875 31.496094 36.066406 31.03125 36.039062 C 30.808594 36.023438 30.589844 36.007812 30.367188 35.972656 C 30.152344 35.933594 29.941406 35.867188 29.726562 35.808594 C 29.421875 35.726562 29.121094 35.652344 28.820312 35.585938 C 28.503906 35.527344 28.183594 35.46875 27.875 35.386719 C 27.542969 35.300781 27.226562 35.179688 26.917969 35.039062 C 26.628906 34.90625 26.351562 34.765625 26.0625 34.632812 C 25.644531 34.441406 25.207031 34.265625 24.808594 34.027344 C 24.609375 33.910156 24.417969 33.785156 24.25 33.621094 C 24.140625 33.519531 24.035156 33.410156 23.933594 33.296875 C 23.859375 33.214844 23.777344 33.113281 23.726562 33.007812 C 23.695312 32.957031 23.675781 32.90625 23.644531 32.855469 C 23.617188 33.082031 23.578125 33.304688 23.542969 33.535156 C 23.402344 34.449219 23.285156 35.371094 23.160156 36.296875 C 23.101562 36.761719 23.042969 37.234375 22.988281 37.699219 C 22.945312 38.113281 22.929688 38.527344 22.921875 38.933594 C 22.914062 39.390625 22.910156 39.839844 22.96875 40.300781 C 23.027344 40.757812 23.113281 41.207031 23.21875 41.65625 C 23.285156 41.921875 23.367188 42.191406 23.453125 42.449219 C 23.550781 42.734375 23.636719 43.023438 23.75 43.304688 C 23.851562 43.578125 23.96875 43.84375 24.074219 44.117188 C 24.167969 44.375 24.257812 44.632812 24.375 44.878906 C 24.472656 45.03125 24.589844 45.164062 24.714844 45.304688 C 24.964844 45.570312 25.222656 45.84375 25.53125 46.050781 C 25.789062 46.191406 26.078125 46.273438 26.359375 46.355469 C 26.46875 46.382812 26.570312 46.414062 26.6875 46.4375 C 26.800781 46.457031 26.910156 46.472656 27.027344 46.480469 C 27.265625 46.472656 27.492188 46.457031 27.730469 46.449219 C 28 46.445312 28.28125 46.429688 28.554688 46.382812 C 28.828125 46.339844 29.09375 46.265625 29.355469 46.207031 C 29.601562 46.15625 29.84375 46.117188 30.078125 46.066406 C 30.527344 45.941406 30.957031 45.75 31.371094 45.535156 C 31.496094 45.46875 31.621094 45.394531 31.730469 45.3125 C 31.863281 45.21875 31.988281 45.113281 32.113281 45.011719 C 32.253906 44.871094 32.394531 44.730469 32.519531 44.574219 C 32.636719 44.433594 32.738281 44.285156 32.835938 44.132812 C 33.078125 43.679688 33.269531 43.214844 33.449219 42.734375 C 33.625 42.257812 33.792969 41.769531 33.949219 41.28125 C 34.015625 41.074219 34.082031 40.859375 34.15625 40.660156 C 34.234375 40.453125 34.324219 40.246094 34.40625 40.039062 C 34.574219 39.613281 34.699219 39.175781 34.855469 38.742188 C 34.9375 38.519531 35.023438 38.304688 35.105469 38.089844 C 35.1875 37.882812 35.269531 37.667969 35.339844 37.457031 C 35.496094 37.035156 35.703125 36.628906 35.84375 36.191406 C 35.910156 35.957031 35.96875 35.734375 36.019531 35.507812 Z M 36.453125 33.195312 C 36.359375 33.195312 36.253906 33.171875 36.175781 33.105469 C 36.136719 33.074219 36.09375 33.039062 36.054688 33.015625 C 35.886719 32.929688 35.703125 32.875 35.527344 32.808594 C 35.335938 32.742188 35.148438 32.675781 34.957031 32.609375 C 34.574219 32.476562 34.199219 32.335938 33.816406 32.21875 C 33.59375 32.160156 33.367188 32.101562 33.144531 32.058594 C 32.6875 31.960938 32.230469 31.859375 31.78125 31.738281 C 31.355469 31.628906 30.917969 31.511719 30.484375 31.4375 C 29.578125 31.273438 28.664062 31.199219 27.742188 31.164062 C 27.382812 31.15625 27.027344 31.15625 26.667969 31.179688 C 26.292969 31.199219 25.921875 31.246094 25.554688 31.324219 C 25.339844 31.378906 25.125 31.4375 24.914062 31.496094 C 24.730469 31.546875 24.539062 31.589844 24.359375 31.671875 C 24.332031 31.6875 24.308594 31.710938 24.28125 31.730469 C 24.273438 31.746094 24.257812 31.753906 24.25 31.769531 C 24.25 31.777344 24.242188 31.785156 24.242188 31.792969 C 24.234375 31.820312 24.226562 31.859375 24.226562 31.886719 C 24.226562 31.9375 24.234375 31.992188 24.25 32.050781 C 24.285156 32.183594 24.339844 32.308594 24.398438 32.425781 C 24.441406 32.5 24.484375 32.582031 24.542969 32.648438 C 24.605469 32.722656 24.664062 32.789062 24.722656 32.855469 C 24.855469 32.980469 24.996094 33.097656 25.148438 33.203125 C 25.597656 33.460938 26.078125 33.660156 26.550781 33.882812 C 26.816406 34.007812 27.078125 34.140625 27.34375 34.257812 C 27.558594 34.359375 27.789062 34.433594 28.015625 34.507812 C 28.363281 34.597656 28.707031 34.664062 29.0625 34.738281 C 29.417969 34.8125 29.769531 34.90625 30.117188 35.003906 C 30.324219 35.0625 30.523438 35.105469 30.734375 35.136719 C 30.914062 35.160156 31.089844 35.167969 31.273438 35.171875 C 31.589844 35.171875 31.914062 35.171875 32.230469 35.171875 C 32.570312 35.171875 32.910156 35.171875 33.242188 35.160156 C 33.574219 35.144531 33.90625 35.121094 34.234375 35.085938 C 34.539062 35.054688 34.839844 35.027344 35.144531 34.960938 C 35.253906 34.929688 35.355469 34.894531 35.460938 34.839844 C 35.546875 34.789062 35.628906 34.730469 35.703125 34.65625 C 35.738281 34.621094 35.777344 34.574219 35.804688 34.53125 C 35.835938 34.480469 35.859375 34.421875 35.871094 34.367188 C 35.902344 34.222656 35.917969 34.082031 35.925781 33.933594 C 35.925781 33.867188 35.925781 33.792969 35.925781 33.726562 C 35.925781 33.601562 35.9375 33.503906 36.019531 33.402344 C 36.09375 33.3125 36.195312 33.253906 36.316406 33.238281 C 36.367188 33.230469 36.410156 33.238281 36.453125 33.253906 C 36.445312 33.230469 36.445312 33.214844 36.453125 33.195312 Z M 38.207031 21.171875 C 38.207031 20.949219 38.1875 20.71875 38.148438 20.507812 C 38.128906 20.425781 38.097656 20.34375 38.070312 20.261719 C 38.0625 20.234375 38.054688 20.203125 38.046875 20.175781 C 38.03125 20.179688 38.023438 20.1875 38.015625 20.195312 C 37.832031 20.285156 37.625 20.335938 37.421875 20.375 C 37.226562 20.410156 37.035156 20.425781 36.84375 20.441406 C 36.441406 20.46875 36.019531 20.492188 35.613281 20.449219 C 35.214844 20.402344 34.824219 20.34375 34.429688 20.300781 C 33.992188 20.246094 33.558594 20.160156 33.125 20.085938 C 32.902344 20.046875 32.679688 20.003906 32.460938 19.960938 C 32.238281 19.90625 32.019531 19.847656 31.796875 19.796875 C 31.363281 19.695312 30.917969 19.613281 30.484375 19.539062 C 30.011719 19.449219 29.550781 19.347656 29.085938 19.214844 C 28.613281 19.082031 28.140625 18.933594 27.675781 18.769531 C 27.21875 18.617188 26.769531 18.421875 26.363281 18.171875 C 26.261719 18.105469 26.160156 18.046875 26.0625 17.972656 C 26.035156 17.949219 26.003906 17.914062 25.972656 17.890625 C 25.96875 17.945312 25.96875 17.996094 25.960938 18.046875 C 25.902344 18.484375 25.8125 18.910156 25.710938 19.339844 C 25.511719 20.167969 25.339844 21.007812 25.179688 21.84375 C 25.089844 22.292969 25.015625 22.75 24.949219 23.210938 C 24.882812 23.652344 24.816406 24.09375 24.730469 24.53125 C 24.675781 24.761719 24.625 24.996094 24.566406 25.226562 C 24.539062 25.359375 24.5 25.484375 24.464844 25.617188 C 24.457031 25.652344 24.441406 25.691406 24.433594 25.71875 C 24.433594 25.726562 24.425781 25.742188 24.425781 25.75 C 24.417969 25.773438 24.410156 25.800781 24.40625 25.824219 C 24.40625 25.832031 24.40625 25.832031 24.398438 25.839844 C 24.398438 25.847656 24.390625 25.859375 24.390625 25.867188 C 24.375 25.882812 24.375 25.90625 24.367188 25.925781 C 24.359375 25.949219 24.351562 25.972656 24.347656 25.992188 C 24.257812 26.320312 24.175781 26.644531 24.125 26.96875 C 24.074219 27.308594 24.027344 27.65625 23.984375 27.996094 C 23.925781 28.460938 23.875 28.917969 23.84375 29.382812 C 23.816406 29.855469 23.792969 30.335938 23.777344 30.808594 C 23.777344 30.875 23.769531 30.941406 23.769531 31.007812 C 23.941406 30.875 24.148438 30.785156 24.351562 30.726562 C 24.816406 30.59375 25.28125 30.46875 25.753906 30.378906 C 26.1875 30.300781 26.644531 30.285156 27.085938 30.277344 C 27.144531 30.277344 27.199219 30.277344 27.25 30.277344 C 27.691406 30.277344 28.140625 30.292969 28.582031 30.320312 C 29.496094 30.378906 30.402344 30.492188 31.289062 30.707031 C 31.722656 30.808594 32.152344 30.933594 32.585938 31.03125 C 33.042969 31.132812 33.5 31.222656 33.957031 31.347656 C 34.429688 31.472656 34.882812 31.652344 35.339844 31.8125 C 35.546875 31.886719 35.746094 31.960938 35.953125 32.035156 C 36.054688 32.070312 36.160156 32.101562 36.253906 32.144531 C 36.386719 32.203125 36.507812 32.285156 36.625 32.367188 C 36.652344 32.199219 36.675781 32.027344 36.710938 31.863281 C 36.808594 31.414062 36.933594 30.972656 37.035156 30.527344 C 37.089844 30.3125 37.125 30.09375 37.175781 29.871094 C 37.226562 29.632812 37.289062 29.398438 37.347656 29.160156 C 37.398438 28.949219 37.457031 28.734375 37.507812 28.519531 C 37.550781 28.296875 37.597656 28.078125 37.625 27.847656 C 37.691406 27.398438 37.78125 26.945312 37.824219 26.496094 C 37.871094 26.046875 37.875 25.585938 37.9375 25.136719 C 37.964844 24.921875 38.007812 24.707031 38.039062 24.5 C 38.070312 24.300781 38.082031 24.101562 38.089844 23.894531 C 38.089844 23.667969 38.074219 23.4375 38.074219 23.210938 C 38.074219 22.957031 38.074219 22.707031 38.089844 22.457031 C 38.097656 22.234375 38.113281 22.011719 38.140625 21.792969 C 38.15625 21.578125 38.195312 21.378906 38.207031 21.171875 Z M 32.320312 25.277344 C 31.78125 25.460938 31.183594 25.484375 30.648438 25.253906 C 30.257812 25.085938 29.886719 24.847656 29.621094 24.523438 C 29.402344 24.257812 29.253906 23.925781 29.21875 23.578125 C 29.179688 23.230469 29.210938 22.855469 29.351562 22.53125 C 29.488281 22.203125 29.710938 21.910156 30 21.710938 C 30.210938 21.5625 30.433594 21.460938 30.675781 21.378906 C 30.90625 21.296875 31.15625 21.253906 31.390625 21.207031 C 31.621094 21.171875 31.855469 21.140625 32.089844 21.140625 C 32.113281 21.140625 32.136719 21.140625 32.15625 21.140625 C 32.488281 21.148438 32.804688 21.222656 33.085938 21.398438 C 33.191406 21.464844 33.277344 21.546875 33.367188 21.636719 C 33.453125 21.71875 33.515625 21.804688 33.527344 21.933594 C 33.535156 22.027344 33.515625 22.125 33.46875 22.203125 C 33.507812 22.257812 33.542969 22.308594 33.574219 22.367188 C 33.609375 22.441406 33.652344 22.515625 33.675781 22.597656 C 33.707031 22.699219 33.734375 22.804688 33.742188 22.90625 C 33.75 22.996094 33.75 23.078125 33.742188 23.164062 C 33.726562 23.476562 33.667969 23.792969 33.558594 24.089844 C 33.441406 24.40625 33.261719 24.703125 32.996094 24.921875 C 32.792969 25.070312 32.554688 25.1875 32.320312 25.277344 Z M 32.253906 24.347656 C 32.335938 24.300781 32.410156 24.25 32.476562 24.191406 C 32.519531 24.140625 32.5625 24.089844 32.601562 24.035156 C 32.671875 23.902344 32.726562 23.761719 32.777344 23.621094 C 32.820312 23.445312 32.851562 23.277344 32.867188 23.089844 C 32.867188 23.023438 32.859375 22.964844 32.851562 22.90625 C 32.84375 22.878906 32.828125 22.847656 32.8125 22.816406 C 32.777344 22.757812 32.734375 22.699219 32.6875 22.648438 C 32.554688 22.523438 32.414062 22.40625 32.3125 22.257812 C 32.261719 22.191406 32.238281 22.109375 32.230469 22.027344 C 32.195312 22.019531 32.152344 22.019531 32.113281 22.019531 C 31.78125 22.035156 31.464844 22.085938 31.148438 22.152344 C 30.980469 22.203125 30.816406 22.257812 30.65625 22.332031 C 30.558594 22.390625 30.46875 22.449219 30.390625 22.523438 C 30.332031 22.582031 30.285156 22.640625 30.234375 22.707031 C 30.191406 22.796875 30.152344 22.878906 30.125 22.964844 C 30.101562 23.070312 30.085938 23.171875 30.078125 23.285156 C 30.078125 23.386719 30.09375 23.484375 30.109375 23.585938 C 30.132812 23.660156 30.152344 23.726562 30.191406 23.792969 C 30.242188 23.875 30.300781 23.957031 30.367188 24.027344 C 30.460938 24.125 30.574219 24.207031 30.683594 24.28125 C 30.839844 24.367188 30.992188 24.441406 31.164062 24.5 C 31.257812 24.523438 31.363281 24.539062 31.457031 24.546875 C 31.589844 24.546875 31.722656 24.523438 31.847656 24.5 C 31.988281 24.464844 32.121094 24.414062 32.253906 24.347656 Z M 35.214844 27.066406 C 35.402344 27.210938 35.429688 27.5 35.28125 27.683594 C 35.246094 27.730469 35.203125 27.765625 35.148438 27.796875 C 35.15625 27.839844 35.164062 27.882812 35.171875 27.929688 C 35.222656 28.195312 35.289062 28.46875 35.296875 28.742188 C 35.296875 28.84375 35.289062 28.949219 35.273438 29.050781 C 35.261719 29.109375 35.238281 29.175781 35.222656 29.234375 C 35.214844 29.257812 35.203125 29.28125 35.195312 29.300781 C 35.105469 29.449219 35.015625 29.589844 34.871094 29.695312 C 34.746094 29.78125 34.613281 29.847656 34.457031 29.886719 C 34.289062 29.929688 34.117188 29.945312 33.949219 29.929688 C 33.734375 29.90625 33.519531 29.855469 33.324219 29.78125 C 33.210938 29.746094 33.101562 29.707031 32.996094 29.65625 C 32.71875 29.53125 32.460938 29.375 32.261719 29.148438 C 32.070312 28.925781 31.953125 28.652344 31.90625 28.363281 C 31.886719 28.195312 31.871094 28.011719 31.890625 27.839844 C 31.914062 27.691406 31.945312 27.53125 32.003906 27.390625 C 32.070312 27.257812 32.144531 27.125 32.246094 27.019531 C 32.355469 26.902344 32.480469 26.8125 32.628906 26.738281 C 32.917969 26.585938 33.25 26.554688 33.574219 26.554688 C 33.585938 26.554688 33.601562 26.554688 33.625 26.554688 C 33.859375 26.554688 34.105469 26.585938 34.339844 26.644531 C 34.488281 26.679688 34.632812 26.71875 34.765625 26.777344 C 34.929688 26.84375 35.078125 26.945312 35.214844 27.066406 Z M 34.429688 28.785156 C 34.421875 28.59375 34.382812 28.402344 34.347656 28.203125 C 34.324219 28.078125 34.296875 27.945312 34.273438 27.816406 C 34.257812 27.765625 34.242188 27.722656 34.222656 27.675781 C 34.199219 27.617188 34.183594 27.558594 34.191406 27.507812 C 34.007812 27.464844 33.832031 27.441406 33.640625 27.425781 C 33.492188 27.425781 33.34375 27.441406 33.195312 27.464844 C 33.136719 27.476562 33.078125 27.5 33.027344 27.53125 C 32.992188 27.550781 32.953125 27.582031 32.925781 27.605469 C 32.902344 27.625 32.886719 27.648438 32.867188 27.675781 C 32.84375 27.722656 32.828125 27.765625 32.8125 27.808594 C 32.800781 27.890625 32.785156 27.964844 32.785156 28.046875 C 32.785156 28.128906 32.800781 28.210938 32.804688 28.296875 C 32.820312 28.355469 32.84375 28.410156 32.867188 28.46875 C 32.894531 28.511719 32.925781 28.554688 32.960938 28.601562 C 33.019531 28.652344 33.078125 28.703125 33.152344 28.75 C 33.328125 28.84375 33.519531 28.917969 33.714844 28.984375 C 33.84375 29.023438 33.976562 29.050781 34.117188 29.058594 C 34.15625 29.058594 34.199219 29.050781 34.234375 29.042969 C 34.265625 29.035156 34.296875 29.023438 34.332031 29.007812 C 34.355469 28.992188 34.375 28.976562 34.398438 28.957031 C 34.398438 28.957031 34.40625 28.949219 34.40625 28.949219 C 34.414062 28.925781 34.421875 28.910156 34.429688 28.890625 C 34.421875 28.851562 34.421875 28.816406 34.429688 28.785156 Z M 58.59375 40.238281 C 58.371094 40.292969 58.195312 40.535156 58.269531 40.773438 C 58.371094 41.125 58.484375 41.464844 58.59375 41.820312 C 58.703125 42.175781 58.828125 42.535156 58.875 42.90625 C 58.886719 43.140625 58.867188 43.371094 58.835938 43.609375 C 58.769531 43.933594 58.683594 44.257812 58.59375 44.574219 C 58.496094 44.929688 58.402344 45.285156 58.304688 45.636719 C 58.238281 45.867188 58.367188 46.117188 58.59375 46.191406 C 58.816406 46.257812 59.082031 46.132812 59.148438 45.90625 C 59.265625 45.492188 59.367188 45.070312 59.484375 44.65625 C 59.601562 44.234375 59.714844 43.808594 59.742188 43.371094 C 59.765625 43.03125 59.742188 42.683594 59.648438 42.351562 C 59.597656 42.160156 59.539062 41.96875 59.476562 41.777344 C 59.359375 41.378906 59.226562 40.976562 59.109375 40.578125 C 59.050781 40.378906 58.882812 40.238281 58.683594 40.238281 C 58.660156 40.234375 58.625 40.234375 58.59375 40.238281 Z M 57.695312 46.902344 C 57.457031 46.902344 57.246094 47.078125 57.238281 47.324219 C 57.230469 47.558594 57.421875 47.78125 57.65625 47.78125 C 57.894531 47.78125 58.105469 47.601562 58.113281 47.359375 C 58.128906 47.121094 57.9375 46.902344 57.695312 46.902344 Z M 58.4375 39.65625 C 58.675781 39.65625 58.886719 39.480469 58.894531 39.234375 C 58.902344 39 58.710938 38.777344 58.476562 38.777344 C 58.238281 38.777344 58.027344 38.953125 58.019531 39.199219 C 58.011719 39.425781 58.203125 39.65625 58.4375 39.65625 Z M 51.578125 42.707031 C 51.34375 42.707031 51.128906 42.882812 51.121094 43.128906 C 51.113281 43.363281 51.304688 43.585938 51.539062 43.585938 C 51.777344 43.585938 51.992188 43.40625 51.996094 43.164062 C 52.011719 42.929688 51.820312 42.707031 51.578125 42.707031 Z M 54.8125 40.367188 C 54.578125 40.367188 54.363281 40.542969 54.355469 40.785156 C 54.347656 41.023438 54.539062 41.246094 54.777344 41.246094 C 55.011719 41.246094 55.226562 41.066406 55.234375 40.824219 C 55.242188 40.585938 55.050781 40.367188 54.8125 40.367188 Z M 53.871094 45.683594 C 53.632812 45.683594 53.421875 45.859375 53.414062 46.105469 C 53.40625 46.339844 53.597656 46.5625 53.832031 46.5625 C 54.070312 46.5625 54.28125 46.382812 54.289062 46.140625 C 54.296875 45.90625 54.105469 45.683594 53.871094 45.683594 Z M 56.265625 42.816406 C 56.027344 42.816406 55.816406 42.996094 55.808594 43.238281 C 55.800781 43.476562 55.992188 43.695312 56.226562 43.695312 C 56.464844 43.695312 56.675781 43.519531 56.683594 43.273438 C 56.699219 43.039062 56.507812 42.816406 56.265625 42.816406 Z M 32.570312 40.070312 C 32.527344 40.054688 32.488281 40.046875 32.445312 40.046875 C 32.371094 40.046875 32.296875 40.0625 32.230469 40.097656 C 32.121094 40.160156 32.070312 40.246094 32.023438 40.359375 C 31.929688 40.585938 31.847656 40.816406 31.746094 41.042969 C 31.679688 41.171875 31.613281 41.296875 31.539062 41.421875 C 31.457031 41.546875 31.375 41.671875 31.304688 41.804688 C 31.164062 42.0625 31.074219 42.34375 30.964844 42.617188 C 30.859375 42.816406 30.734375 43.003906 30.59375 43.179688 C 30.351562 43.46875 30.101562 43.742188 29.800781 43.976562 C 29.644531 44.082031 29.484375 44.175781 29.320312 44.265625 C 29.160156 44.351562 28.988281 44.457031 28.820312 44.539062 C 28.796875 44.546875 28.769531 44.554688 28.746094 44.554688 C 28.507812 44.605469 28.363281 44.847656 28.421875 45.085938 C 28.480469 45.320312 28.714844 45.460938 28.953125 45.410156 C 29.1875 45.359375 29.394531 45.230469 29.601562 45.121094 C 29.753906 45.039062 29.902344 44.953125 30.058594 44.863281 C 30.382812 44.664062 30.667969 44.414062 30.933594 44.132812 C 31.171875 43.875 31.398438 43.601562 31.597656 43.304688 C 31.789062 43.015625 31.878906 42.683594 32.011719 42.375 C 32.144531 42.117188 32.320312 41.878906 32.453125 41.613281 C 32.613281 41.296875 32.738281 40.957031 32.871094 40.625 C 32.953125 40.402344 32.792969 40.136719 32.570312 40.070312 Z M 32.960938 38.734375 C 32.726562 38.734375 32.511719 38.910156 32.503906 39.152344 C 32.496094 39.390625 32.6875 39.613281 32.925781 39.613281 C 33.160156 39.613281 33.375 39.433594 33.382812 39.191406 C 33.386719 38.960938 33.195312 38.734375 32.960938 38.734375 Z M 26.363281 38.355469 C 26.128906 38.355469 25.914062 38.535156 25.90625 38.777344 C 25.902344 39.015625 26.09375 39.234375 26.328125 39.234375 C 26.5625 39.234375 26.777344 39.058594 26.785156 38.816406 C 26.792969 38.585938 26.601562 38.355469 26.363281 38.355469 Z M 26.304688 37.269531 C 26.3125 37.035156 26.121094 36.8125 25.886719 36.8125 C 25.648438 36.8125 25.4375 36.992188 25.429688 37.234375 C 25.421875 37.46875 25.613281 37.691406 25.847656 37.691406 C 26.085938 37.691406 26.292969 37.515625 26.304688 37.269531 Z M 24.160156 41.820312 C 23.925781 41.820312 23.710938 41.996094 23.703125 42.242188 C 23.695312 42.476562 23.890625 42.699219 24.125 42.699219 C 24.359375 42.699219 24.574219 42.523438 24.582031 42.277344 C 24.589844 42.042969 24.398438 41.820312 24.160156 41.820312 Z M 28.914062 42.632812 C 28.921875 42.394531 28.730469 42.175781 28.496094 42.175781 C 28.257812 42.175781 28.046875 42.351562 28.039062 42.597656 C 28.03125 42.832031 28.222656 43.054688 28.457031 43.054688 C 28.695312 43.054688 28.898438 42.875 28.914062 42.632812 Z M 29.6875 40.160156 C 29.925781 40.160156 30.136719 39.980469 30.144531 39.738281 C 30.152344 39.5 29.960938 39.28125 29.726562 39.28125 C 29.488281 39.28125 29.277344 39.457031 29.269531 39.699219 C 29.253906 39.9375 29.445312 40.160156 29.6875 40.160156 Z M 28.371094 37.816406 C 28.378906 37.714844 28.332031 37.566406 28.25 37.5 C 28.230469 37.484375 28.207031 37.464844 28.183594 37.449219 C 28.113281 37.308594 27.949219 37.226562 27.792969 37.226562 C 27.765625 37.226562 27.730469 37.226562 27.699219 37.234375 C 27.457031 37.292969 27.332031 37.53125 27.375 37.765625 C 27.402344 37.921875 27.5 38.015625 27.609375 38.105469 C 27.699219 38.179688 27.789062 38.238281 27.914062 38.246094 C 28.03125 38.253906 28.148438 38.207031 28.230469 38.128906 C 28.316406 38.039062 28.363281 37.9375 28.371094 37.816406 Z M 31.898438 38.214844 C 32.136719 38.214844 32.347656 38.039062 32.355469 37.796875 C 32.363281 37.558594 32.171875 37.335938 31.9375 37.335938 C 31.699219 37.335938 31.488281 37.515625 31.480469 37.757812 C 31.464844 37.996094 31.65625 38.214844 31.898438 38.214844 Z M 55.984375 27.773438 C 56.035156 28.15625 56.089844 28.542969 56.15625 28.925781 C 56.183594 29.101562 56.214844 29.28125 56.257812 29.457031 C 56.28125 29.554688 56.300781 29.648438 56.324219 29.746094 C 56.347656 29.820312 56.359375 29.886719 56.390625 29.953125 C 56.417969 30.035156 56.449219 30.101562 56.492188 30.171875 C 56.53125 30.238281 56.582031 30.300781 56.625 30.359375 C 56.691406 30.445312 56.824219 30.492188 56.929688 30.5 C 57.046875 30.507812 57.164062 30.460938 57.246094 30.378906 C 57.328125 30.300781 57.378906 30.195312 57.386719 30.078125 C 57.390625 29.953125 57.339844 29.855469 57.265625 29.761719 C 57.253906 29.738281 57.238281 29.707031 57.222656 29.679688 C 57.121094 29.367188 57.066406 29.042969 57.015625 28.726562 C 56.964844 28.410156 56.921875 28.089844 56.875 27.773438 C 56.832031 27.449219 56.78125 27.117188 56.738281 26.792969 C 56.691406 26.496094 56.648438 26.191406 56.609375 25.898438 C 56.605469 25.78125 56.597656 25.667969 56.597656 25.550781 C 56.597656 25.3125 56.417969 25.101562 56.175781 25.09375 C 56.167969 25.09375 56.167969 25.09375 56.160156 25.09375 C 55.933594 25.09375 55.71875 25.285156 55.71875 25.511719 C 55.71875 25.914062 55.777344 26.304688 55.835938 26.695312 C 55.890625 27.050781 55.933594 27.410156 55.984375 27.773438 Z M 37.347656 21.710938 C 37.265625 21.628906 37.160156 21.578125 37.042969 21.570312 C 37.035156 21.570312 37.035156 21.570312 37.03125 21.570312 C 36.917969 21.570312 36.808594 21.613281 36.726562 21.6875 C 36.652344 21.753906 36.578125 21.878906 36.585938 21.992188 C 36.601562 22.132812 36.609375 22.269531 36.617188 22.410156 C 36.625 22.550781 36.601562 22.683594 36.585938 22.816406 C 36.519531 23.15625 36.441406 23.488281 36.367188 23.828125 C 36.292969 24.207031 36.226562 24.589844 36.167969 24.972656 C 36.121094 25.242188 36.070312 25.507812 36.019531 25.773438 C 35.953125 26.121094 35.910156 26.472656 35.863281 26.828125 C 35.835938 27.066406 36.0625 27.277344 36.285156 27.285156 C 36.402344 27.292969 36.519531 27.25 36.601562 27.167969 C 36.691406 27.085938 36.726562 26.984375 36.742188 26.863281 C 36.769531 26.636719 36.800781 26.40625 36.835938 26.179688 C 36.941406 25.632812 37.035156 25.078125 37.132812 24.53125 C 37.207031 24.148438 37.289062 23.761719 37.375 23.371094 C 37.425781 23.144531 37.480469 22.90625 37.492188 22.671875 C 37.507812 22.457031 37.492188 22.242188 37.472656 22.027344 C 37.457031 21.910156 37.433594 21.804688 37.347656 21.710938 Z M 36.707031 14.023438 C 36.375 13.859375 36.050781 13.703125 35.738281 13.496094 C 35.394531 13.261719 35.054688 13.011719 34.707031 12.773438 C 34.640625 12.730469 34.558594 12.707031 34.488281 12.707031 C 34.332031 12.707031 34.183594 12.789062 34.101562 12.914062 C 33.972656 13.128906 34.050781 13.386719 34.242188 13.519531 C 34.605469 13.769531 34.957031 14.03125 35.328125 14.28125 C 35.613281 14.472656 35.9375 14.621094 36.25 14.777344 C 36.476562 14.886719 36.699219 14.988281 36.925781 15.09375 C 37.03125 15.136719 37.175781 15.109375 37.265625 15.054688 C 37.367188 15.003906 37.441406 14.910156 37.472656 14.796875 C 37.507812 14.6875 37.492188 14.5625 37.433594 14.457031 C 37.375 14.347656 37.289062 14.296875 37.175781 14.25 C 37.15625 14.242188 37.140625 14.234375 37.117188 14.222656 C 37.15625 14.234375 37.183594 14.25 37.222656 14.265625 C 37.050781 14.191406 36.882812 14.109375 36.707031 14.023438 Z M 39.828125 11.015625 C 39.75 10.78125 39.660156 10.550781 39.566406 10.320312 C 39.484375 10.121094 39.386719 9.921875 39.292969 9.730469 C 39.21875 9.582031 39.0625 9.503906 38.902344 9.503906 C 38.828125 9.503906 38.753906 9.515625 38.695312 9.554688 C 38.472656 9.671875 38.414062 9.9375 38.519531 10.152344 C 38.652344 10.425781 38.777344 10.707031 38.894531 10.988281 C 39.054688 11.445312 39.210938 11.902344 39.359375 12.359375 C 39.394531 12.480469 39.445312 12.566406 39.558594 12.632812 C 39.652344 12.691406 39.777344 12.714844 39.890625 12.683594 C 40.109375 12.632812 40.285156 12.382812 40.214844 12.152344 C 40.089844 11.777344 39.960938 11.394531 39.828125 11.015625 Z M 45.445312 8.550781 C 45.378906 8.503906 45.296875 8.484375 45.210938 8.484375 C 45.0625 8.484375 44.914062 8.558594 44.835938 8.691406 C 44.554688 9.199219 44.28125 9.703125 44.007812 10.21875 C 43.875 10.46875 43.765625 10.742188 43.65625 11 C 43.542969 11.265625 43.472656 11.546875 43.398438 11.820312 C 43.339844 12.050781 43.449219 12.300781 43.683594 12.375 C 43.90625 12.441406 44.171875 12.316406 44.238281 12.085938 C 44.289062 11.878906 44.347656 11.671875 44.414062 11.472656 C 44.472656 11.304688 44.539062 11.140625 44.613281 10.972656 C 44.90625 10.351562 45.238281 9.753906 45.570312 9.15625 C 45.703125 8.941406 45.652344 8.675781 45.445312 8.550781 Z M 49.160156 14.414062 C 49.402344 14.347656 49.640625 14.289062 49.882812 14.222656 C 50.109375 14.15625 50.265625 13.933594 50.207031 13.691406 C 50.164062 13.496094 49.976562 13.351562 49.78125 13.351562 C 49.742188 13.351562 49.714844 13.359375 49.675781 13.363281 C 49.195312 13.496094 48.726562 13.625 48.238281 13.742188 C 47.765625 13.859375 47.289062 13.910156 46.808594 14.015625 C 46.574219 14.066406 46.425781 14.308594 46.484375 14.546875 C 46.542969 14.78125 46.78125 14.921875 47.015625 14.871094 C 47.488281 14.769531 47.964844 14.703125 48.4375 14.597656 C 48.679688 14.546875 48.917969 14.480469 49.160156 14.414062 Z M 47.222656 19.390625 C 47.332031 19.457031 47.4375 19.464844 47.554688 19.441406 C 47.730469 19.421875 47.898438 19.390625 48.078125 19.363281 C 48.320312 19.316406 48.554688 19.265625 48.800781 19.234375 C 48.902344 19.230469 49 19.222656 49.101562 19.222656 C 49.234375 19.214844 49.359375 19.230469 49.492188 19.25 C 49.933594 19.332031 50.367188 19.441406 50.804688 19.5625 C 51.03125 19.621094 51.28125 19.503906 51.355469 19.273438 C 51.421875 19.050781 51.296875 18.785156 51.070312 18.71875 C 50.566406 18.585938 50.058594 18.460938 49.542969 18.371094 C 49.425781 18.351562 49.300781 18.34375 49.175781 18.34375 C 49 18.34375 48.820312 18.355469 48.644531 18.378906 C 48.4375 18.402344 48.230469 18.4375 48.03125 18.484375 C 47.8125 18.527344 47.589844 18.5625 47.371094 18.59375 C 47.257812 18.609375 47.15625 18.695312 47.097656 18.792969 C 47.039062 18.890625 47.015625 19.015625 47.046875 19.125 C 47.050781 19.230469 47.117188 19.332031 47.222656 19.390625 Z M 65.269531 71.695312 C 65.234375 71.488281 65.035156 71.355469 64.835938 71.355469 C 64.808594 71.355469 64.769531 71.355469 64.742188 71.363281 C 64.628906 71.390625 64.527344 71.457031 64.46875 71.5625 C 64.402344 71.664062 64.394531 71.773438 64.417969 71.894531 C 64.429688 71.972656 64.445312 72.054688 64.453125 72.136719 C 64.453125 72.160156 64.453125 72.175781 64.453125 72.195312 C 64.445312 72.210938 64.445312 72.226562 64.4375 72.242188 C 64.371094 72.375 64.285156 72.492188 64.195312 72.609375 C 64.085938 72.734375 63.964844 72.839844 63.832031 72.941406 C 63.574219 73.125 63.316406 73.332031 63.046875 73.496094 C 62.964844 73.546875 62.875 73.597656 62.789062 73.644531 C 62.699219 73.6875 62.609375 73.730469 62.523438 73.769531 C 62.34375 73.851562 62.160156 73.917969 61.976562 73.992188 C 61.875 74.027344 61.800781 74.152344 61.769531 74.25 C 61.734375 74.359375 61.75 74.484375 61.808594 74.589844 C 61.859375 74.691406 61.953125 74.765625 62.066406 74.796875 C 62.191406 74.832031 62.285156 74.808594 62.402344 74.757812 C 62.726562 74.632812 63.050781 74.515625 63.347656 74.335938 C 63.636719 74.160156 63.90625 73.953125 64.1875 73.761719 C 64.328125 73.660156 64.476562 73.5625 64.609375 73.453125 C 64.746094 73.324219 64.859375 73.191406 64.96875 73.046875 C 65.085938 72.898438 65.199219 72.71875 65.261719 72.542969 C 65.300781 72.441406 65.324219 72.34375 65.335938 72.234375 C 65.351562 72.160156 65.328125 72.054688 65.324219 71.988281 C 65.308594 71.886719 65.292969 71.789062 65.269531 71.695312 Z M 24.042969 70.792969 C 23.808594 70.824219 23.628906 71.050781 23.667969 71.289062 C 23.695312 71.523438 23.925781 71.695312 24.160156 71.664062 C 24.265625 71.648438 24.367188 71.640625 24.472656 71.636719 C 24.65625 71.640625 24.832031 71.65625 25.015625 71.6875 C 25.238281 71.714844 25.457031 71.746094 25.679688 71.753906 C 25.921875 71.761719 26.167969 71.761719 26.410156 71.730469 C 26.496094 71.722656 26.585938 71.707031 26.667969 71.6875 C 26.816406 71.648438 26.933594 71.605469 27.058594 71.507812 C 27.207031 71.398438 27.292969 71.175781 27.273438 70.992188 C 27.257812 70.867188 27.21875 70.757812 27.183594 70.636719 C 27.152344 70.535156 27.042969 70.445312 26.949219 70.402344 C 26.894531 70.378906 26.828125 70.363281 26.769531 70.363281 C 26.710938 70.363281 26.652344 70.371094 26.601562 70.394531 C 26.496094 70.4375 26.410156 70.519531 26.363281 70.621094 C 26.335938 70.695312 26.328125 70.769531 26.335938 70.835938 C 26.167969 70.859375 25.996094 70.867188 25.828125 70.867188 C 25.570312 70.859375 25.3125 70.828125 25.054688 70.792969 C 24.722656 70.761719 24.390625 70.757812 24.042969 70.792969 Z M 51.910156 37.980469 C 51.894531 37.863281 51.835938 37.75 51.746094 37.675781 C 51.652344 37.601562 51.546875 37.582031 51.429688 37.582031 C 51.320312 37.582031 51.195312 37.664062 51.128906 37.742188 C 51.054688 37.832031 51.023438 37.949219 51.03125 38.0625 C 51.046875 38.179688 51.105469 38.289062 51.195312 38.363281 C 51.289062 38.4375 51.394531 38.460938 51.511719 38.460938 C 51.621094 38.460938 51.746094 38.378906 51.8125 38.296875 C 51.886719 38.207031 51.925781 38.089844 51.910156 37.980469 Z M 54.644531 37.515625 C 54.753906 37.515625 54.878906 37.433594 54.945312 37.351562 C 55.019531 37.261719 55.050781 37.144531 55.042969 37.035156 C 55.027344 36.917969 54.96875 36.804688 54.878906 36.730469 C 54.785156 36.65625 54.679688 36.636719 54.5625 36.636719 C 54.453125 36.636719 54.328125 36.71875 54.261719 36.796875 C 54.1875 36.886719 54.15625 37.003906 54.164062 37.117188 C 54.179688 37.234375 54.238281 37.34375 54.328125 37.417969 C 54.421875 37.5 54.527344 37.515625 54.644531 37.515625 Z M 57.121094 37.058594 C 57.230469 37.058594 57.355469 36.976562 57.421875 36.894531 C 57.496094 36.804688 57.523438 36.6875 57.519531 36.578125 C 57.503906 36.457031 57.445312 36.347656 57.355469 36.273438 C 57.261719 36.199219 57.15625 36.179688 57.039062 36.179688 C 56.929688 36.179688 56.804688 36.257812 56.738281 36.339844 C 56.664062 36.429688 56.632812 36.546875 56.640625 36.65625 C 56.65625 36.777344 56.714844 36.886719 56.804688 36.960938 C 56.898438 37.035156 57 37.058594 57.121094 37.058594 Z M 27.441406 32.117188 C 27.332031 32.117188 27.207031 32.199219 27.140625 32.277344 C 27.066406 32.367188 27.035156 32.484375 27.042969 32.597656 C 27.058594 32.714844 27.117188 32.824219 27.207031 32.898438 C 27.300781 32.972656 27.402344 32.996094 27.523438 32.996094 C 27.632812 32.996094 27.757812 32.914062 27.824219 32.832031 C 27.898438 32.742188 27.925781 32.625 27.921875 32.515625 C 27.90625 32.398438 27.847656 32.285156 27.757812 32.210938 C 27.664062 32.128906 27.558594 32.117188 27.441406 32.117188 Z M 30.707031 33.097656 C 30.59375 33.097656 30.46875 33.179688 30.402344 33.261719 C 30.332031 33.347656 30.300781 33.46875 30.308594 33.578125 C 30.324219 33.695312 30.382812 33.808594 30.46875 33.882812 C 30.566406 33.953125 30.667969 33.976562 30.785156 33.976562 C 30.898438 33.976562 31.023438 33.894531 31.089844 33.816406 C 31.164062 33.726562 31.191406 33.609375 31.183594 33.496094 C 31.171875 33.378906 31.109375 33.269531 31.023438 33.195312 C 30.925781 33.113281 30.824219 33.097656 30.707031 33.097656 Z M 33.542969 33.355469 C 33.433594 33.355469 33.308594 33.4375 33.242188 33.519531 C 33.167969 33.609375 33.136719 33.726562 33.144531 33.835938 C 33.160156 33.953125 33.21875 34.066406 33.308594 34.140625 C 33.402344 34.214844 33.507812 34.234375 33.625 34.234375 C 33.734375 34.234375 33.859375 34.15625 33.925781 34.074219 C 34 33.984375 34.03125 33.867188 34.023438 33.753906 C 34.007812 33.636719 33.949219 33.527344 33.859375 33.453125 C 33.765625 33.371094 33.660156 33.355469 33.542969 33.355469 Z M 33.542969 33.355469 " fill-opacity="1" fill-rule="nonzero"/></svg>