<svg xmlns="http://www.w3.org/2000/svg" xmlns:xlink="http://www.w3.org/1999/xlink" width="110" zoomAndPan="magnify" viewBox="0 0 82.5 101.249998" height="135" preserveAspectRatio="xMidYMid meet" version="1.0"><path fill="#000000" d="M 44.496094 36.417969 C 44.824219 36.417969 45.089844 36.148438 45.089844 35.820312 L 45.089844 29.890625 C 45.089844 29.5625 44.824219 29.296875 44.496094 29.296875 C 44.167969 29.296875 43.902344 29.5625 43.902344 29.890625 L 43.902344 35.820312 C 43.902344 36.148438 44.167969 36.417969 44.496094 36.417969 Z M 44.496094 36.417969 " fill-opacity="1" fill-rule="nonzero"/><path fill="#000000" d="M 46.792969 36.417969 C 47.121094 36.417969 47.386719 36.148438 47.386719 35.820312 L 47.386719 29.890625 C 47.386719 29.5625 47.121094 29.296875 46.792969 29.296875 C 46.464844 29.296875 46.195312 29.5625 46.195312 29.890625 L 46.195312 35.820312 C 46.195312 36.148438 46.460938 36.417969 46.792969 36.417969 Z M 46.792969 36.417969 " fill-opacity="1" fill-rule="nonzero"/><path fill="#000000" d="M 47.167969 58.253906 C 47.167969 57.925781 46.898438 57.65625 46.570312 57.65625 C 46.242188 57.65625 45.976562 57.925781 45.976562 58.253906 C 45.976562 60.785156 44.433594 63.566406 42.109375 64.261719 C 42.84375 62.914062 43.933594 60.5625 43.933594 58.472656 C 43.933594 54.261719 41.851562 53.808594 40.960938 53.808594 C 40.066406 53.808594 37.984375 54.261719 37.984375 58.472656 C 37.984375 61.0625 39.660156 64.054688 40.253906 65.039062 C 39.660156 66.019531 37.984375 69.015625 37.984375 71.605469 C 37.984375 75.816406 40.066406 76.269531 40.960938 76.269531 C 41.851562 76.269531 43.933594 75.816406 43.933594 71.605469 C 43.933594 69.507812 42.835938 67.148438 42.097656 65.800781 C 44.429688 66.488281 45.976562 69.273438 45.976562 71.8125 C 45.976562 72.140625 46.242188 72.40625 46.570312 72.40625 C 46.898438 72.40625 47.167969 72.140625 47.167969 71.8125 C 47.167969 69.09375 45.714844 66.234375 43.382812 65.035156 C 45.714844 63.832031 47.167969 60.972656 47.167969 58.253906 Z M 40.960938 55 C 42.511719 55 42.742188 57.175781 42.742188 58.472656 C 42.742188 60.382812 41.628906 62.671875 40.960938 63.878906 C 40.289062 62.671875 39.175781 60.386719 39.175781 58.472656 C 39.175781 57.175781 39.40625 55 40.960938 55 Z M 40.960938 75.078125 C 39.40625 75.078125 39.175781 72.898438 39.175781 71.601562 C 39.175781 69.691406 40.289062 67.40625 40.960938 66.199219 C 41.632812 67.402344 42.742188 69.6875 42.742188 71.601562 C 42.742188 72.898438 42.511719 75.078125 40.960938 75.078125 Z M 40.960938 75.078125 " fill-opacity="1" fill-rule="nonzero"/><path fill="#000000" d="M 56.242188 67.105469 L 56.242188 67.101562 L 56.238281 39.863281 L 56.238281 39.859375 C 56.238281 39.796875 56.222656 39.742188 56.203125 39.6875 C 56.199219 39.667969 56.199219 39.648438 56.195312 39.628906 C 56.179688 39.601562 56.15625 39.574219 56.136719 39.546875 C 56.113281 39.511719 56.097656 39.472656 56.066406 39.441406 C 56.054688 39.429688 56.035156 39.421875 56.019531 39.414062 C 55.976562 39.375 55.929688 39.335938 55.871094 39.3125 C 55.871094 39.3125 55.871094 39.3125 55.867188 39.3125 C 55.828125 39.296875 55.789062 39.296875 55.75 39.292969 C 55.714844 39.285156 55.679688 39.269531 55.648438 39.269531 L 53.03125 39.269531 L 53.027344 26.375 C 53.027344 26.046875 52.757812 25.78125 52.429688 25.78125 L 29.488281 25.78125 C 29.160156 25.78125 28.890625 26.046875 28.890625 26.375 L 28.890625 39.269531 L 26.273438 39.269531 C 26.234375 39.269531 26.195312 39.285156 26.160156 39.292969 C 26.125 39.296875 26.085938 39.296875 26.050781 39.308594 C 26.050781 39.308594 26.050781 39.3125 26.046875 39.3125 C 25.992188 39.332031 25.949219 39.367188 25.90625 39.40625 C 25.890625 39.417969 25.867188 39.425781 25.855469 39.441406 C 25.832031 39.464844 25.820312 39.492188 25.804688 39.515625 C 25.777344 39.554688 25.746094 39.589844 25.726562 39.628906 C 25.722656 39.644531 25.722656 39.664062 25.71875 39.675781 C 25.699219 39.734375 25.679688 39.796875 25.679688 39.859375 L 25.679688 80.023438 C 25.679688 81.011719 26.488281 81.816406 27.476562 81.816406 L 54.453125 81.816406 C 55.441406 81.816406 56.246094 81.011719 56.246094 80.023438 L 56.242188 67.109375 Z M 54.765625 40.457031 L 53.027344 44.804688 L 53.027344 40.457031 Z M 51.835938 26.96875 L 51.835938 47.105469 C 51.164062 47.824219 50.222656 48.261719 49.1875 48.261719 L 48.1875 48.261719 L 48.1875 43.351562 C 48.1875 42.601562 48.335938 41.871094 48.625 41.179688 L 49.492188 39.105469 C 49.738281 38.515625 49.863281 37.894531 49.863281 37.257812 L 49.863281 29.894531 C 49.863281 29.566406 49.59375 29.296875 49.265625 29.296875 C 48.9375 29.296875 48.671875 29.566406 48.671875 29.894531 L 48.671875 37.253906 C 48.671875 37.734375 48.578125 38.203125 48.394531 38.644531 L 47.523438 40.71875 C 47.171875 41.554688 46.996094 42.445312 46.996094 43.351562 L 46.996094 48.261719 L 44.289062 48.261719 L 44.289062 43.351562 C 44.289062 42.445312 44.113281 41.558594 43.761719 40.71875 L 42.894531 38.648438 C 42.707031 38.203125 42.613281 37.734375 42.613281 37.253906 L 42.617188 29.894531 C 42.617188 29.566406 42.347656 29.296875 42.019531 29.296875 C 41.691406 29.296875 41.425781 29.566406 41.425781 29.894531 L 41.425781 37.253906 C 41.425781 37.894531 41.550781 38.515625 41.792969 39.101562 L 42.664062 41.175781 C 42.949219 41.867188 43.101562 42.597656 43.101562 43.351562 L 43.101562 48.257812 L 37.640625 48.257812 C 37.6875 47.878906 37.742188 47.507812 37.832031 47.140625 L 39.445312 40.441406 C 39.679688 39.472656 39.578125 38.441406 39.167969 37.535156 L 35.984375 30.53125 C 35.640625 29.78125 34.886719 29.292969 34.0625 29.292969 C 32.957031 29.292969 32.054688 30.195312 32.054688 31.300781 L 32.054688 48.1875 C 31.289062 48.042969 30.605469 47.660156 30.082031 47.101562 L 30.082031 26.972656 Z M 33.246094 48.257812 L 33.246094 31.304688 C 33.246094 30.855469 33.613281 30.488281 34.0625 30.488281 C 34.421875 30.488281 34.75 30.699219 34.898438 31.027344 L 38.082031 38.027344 C 38.386719 38.695312 38.457031 39.453125 38.289062 40.160156 L 36.675781 46.863281 C 36.566406 47.316406 36.496094 47.789062 36.449219 48.257812 Z M 28.890625 44.808594 L 27.152344 40.460938 L 28.890625 40.460938 Z M 54.445312 80.628906 L 27.46875 80.628906 C 27.136719 80.628906 26.867188 80.355469 26.867188 80.023438 L 26.867188 67.703125 L 36.8125 67.703125 C 37.140625 67.703125 37.410156 67.433594 37.410156 67.105469 C 37.410156 66.777344 37.140625 66.511719 36.8125 66.511719 L 26.867188 66.511719 L 26.867188 63.570312 L 36.847656 63.570312 C 37.175781 63.570312 37.441406 63.300781 37.441406 62.976562 C 37.441406 62.648438 37.175781 62.378906 36.847656 62.378906 L 26.867188 62.378906 L 26.867188 42.957031 L 28.253906 46.421875 C 28.453125 46.921875 28.730469 47.363281 29.0625 47.753906 C 29.0625 47.753906 29.066406 47.757812 29.066406 47.757812 C 29.9375 48.78125 31.207031 49.40625 32.601562 49.441406 C 32.617188 49.441406 32.632812 49.449219 32.648438 49.449219 C 32.65625 49.449219 32.664062 49.445312 32.667969 49.445312 C 32.6875 49.445312 32.707031 49.449219 32.726562 49.449219 L 49.1875 49.449219 C 50.632812 49.449219 51.953125 48.8125 52.851562 47.757812 C 52.851562 47.753906 52.851562 47.753906 52.855469 47.753906 C 53.1875 47.363281 53.464844 46.917969 53.664062 46.421875 L 55.050781 42.957031 L 55.050781 62.375 L 48.152344 62.375 C 47.824219 62.375 47.558594 62.644531 47.558594 62.972656 C 47.558594 63.300781 47.824219 63.566406 48.152344 63.566406 L 55.050781 63.566406 L 55.050781 66.507812 L 48.121094 66.511719 C 47.792969 66.511719 47.523438 66.777344 47.523438 67.105469 C 47.523438 67.433594 47.792969 67.703125 48.121094 67.703125 L 55.050781 67.703125 L 55.050781 80.027344 C 55.046875 80.355469 54.777344 80.628906 54.445312 80.628906 Z M 54.445312 80.628906 " fill-opacity="1" fill-rule="nonzero"/></svg>